
<svg xmlns="http://www.w3.org/2000/svg"  viewBox="0 0 515.218 611.956" 
<g>
	<g>
		<path fill="#FFFFFF" d="M270.239,472.549c100.227,0.176,181.377-80.974,181.516-181.139
			c-0.139-100.038-81.289-181.187-181.516-181.138C170.264,110.223,89.113,191.372,89.1,291.41
			C89.113,391.575,170.264,472.725,270.239,472.549L270.239,472.549z"/>
		<path d="M270.146,468.58c0,0,1.111-0.033,3.266-0.099c1.077-0.032,2.414-0.072,4.004-0.12c0.786-0.035,1.67-0.025,2.554-0.103
			c0.887-0.073,1.833-0.151,2.838-0.234c7.99-0.559,20.044-1.943,34.647-6.101c1.824-0.53,3.696-1.075,5.617-1.635
			c1.891-0.651,3.828-1.319,5.813-2.003c1.999-0.64,3.98-1.47,6.018-2.285c2.029-0.832,4.14-1.595,6.199-2.598
			c8.389-3.655,17.115-8.396,25.937-14.206c8.819-5.816,17.657-12.835,26.171-21.072c8.508-8.235,16.688-17.725,23.929-28.526
			c7.23-10.798,13.656-22.811,18.704-35.901c0.691-1.613,1.204-3.301,1.796-4.967c0.57-1.674,1.173-3.345,1.724-5.04
			c0.497-1.713,0.996-3.432,1.497-5.158c0.251-0.862,0.503-1.728,0.755-2.594c0.24-0.87,0.425-1.756,0.641-2.635
			c0.419-1.764,0.839-3.533,1.261-5.31c0.425-1.775,0.689-3.592,1.045-5.396l0.504-2.718c0.177-0.906,0.339-1.816,0.443-2.738
			c0.245-1.837,0.49-3.68,0.737-5.529c0.287-1.846,0.414-3.716,0.567-5.588c0.152-1.874,0.306-3.753,0.459-5.639
			c0.061-1.892,0.12-3.789,0.18-5.693l0.092-2.861l0.012-0.358c0.008,0.117-0.002-0.178-0.002-0.247l-0.017-0.734l-0.031-1.47
			c-0.043-1.961-0.085-3.928-0.128-5.901c-0.05-1.968-0.256-3.825-0.374-5.752c-0.188-3.815-0.753-7.698-1.22-11.592
			c-1.173-7.753-2.658-15.569-4.924-23.259c-0.987-3.887-2.363-7.675-3.61-11.525c-0.677-1.906-1.447-3.783-2.167-5.684
			l-1.101-2.848l-1.237-2.797c-6.476-14.998-15.255-29.304-25.954-42.321c-1.368-1.602-2.738-3.207-4.11-4.813
			c-1.382-1.599-2.88-3.097-4.317-4.655l-2.182-2.317l-2.291-2.214c-1.545-1.46-3.023-2.998-4.628-4.402
			c-6.296-5.759-13.103-11.004-20.193-15.892c-7.124-4.851-14.692-9.083-22.479-12.915c-7.815-3.793-15.979-6.891-24.291-9.559
			c-8.338-2.615-16.909-4.486-25.558-5.92c-8.673-1.32-17.445-1.97-26.233-2.126l-6.614,0.106c-1.107,0.03-2.232,0.019-3.327,0.082
			l-3.268,0.227l-3.268,0.225c-1.09,0.077-2.179,0.13-3.271,0.285l-6.544,0.784c-2.184,0.246-4.334,0.707-6.502,1.058l-3.245,0.564
			c-1.077,0.211-2.143,0.476-3.214,0.711c-2.137,0.499-4.289,0.936-6.412,1.484l-6.335,1.769l-1.583,0.444l-1.559,0.521l-3.116,1.04
			l-3.115,1.039c-1.037,0.349-2.043,0.781-3.067,1.167c-2.033,0.805-4.086,1.561-6.101,2.405l-5.98,2.673l-1.493,0.67l-1.459,0.74
			L188.116,132l-2.915,1.477c-0.968,0.499-1.897,1.067-2.848,1.596c-1.883,1.089-3.797,2.125-5.652,3.254
			c-1.833,1.167-3.664,2.333-5.493,3.497c-28.989,19.112-51.732,46.436-65.034,76.706l-1.275,2.822l-1.14,2.872
			c-0.748,1.917-1.521,3.82-2.243,5.737c-1.275,3.894-2.723,7.714-3.74,11.648c-2.344,7.779-3.829,15.705-5.056,23.556
			c-0.464,3.95-1.064,7.862-1.26,11.793c-0.127,1.961-0.318,3.914-0.394,5.867c-0.043,1.954-0.085,3.902-0.128,5.844l-0.057,2.865
			l0.087,2.927c0.063,1.948,0.126,3.891,0.189,5.827c0.119,1.917,0.308,3.801,0.456,5.693c0.169,1.888,0.27,3.77,0.565,5.645
			c0.509,3.748,0.942,7.48,1.704,11.134c0.356,1.83,0.646,3.666,1.052,5.471c0.429,1.799,0.856,3.592,1.282,5.378
			c0.214,0.893,0.427,1.784,0.64,2.673c0.256,0.878,0.512,1.754,0.767,2.628c0.51,1.749,1.018,3.49,1.523,5.225
			c0.536,1.725,1.165,3.412,1.739,5.109c0.612,1.684,1.109,3.4,1.814,5.033c5.122,13.257,11.595,25.449,18.99,36.332
			c7.381,10.898,15.731,20.431,24.377,28.698c8.664,8.263,17.69,15.215,26.64,20.982c8.943,5.783,17.796,10.434,26.28,14.003
			c2.084,0.978,4.212,1.73,6.266,2.534c2.06,0.787,4.058,1.605,6.076,2.221c2.002,0.659,3.958,1.303,5.865,1.932
			c1.935,0.537,3.822,1.061,5.66,1.57c14.742,3.98,26.738,5.197,34.872,5.654c2.036,0.145,3.833,0.271,5.391,0.26
			c1.556,0.025,2.865,0.046,3.919,0.063c2.108,0.035,3.196,0.053,3.196,0.053L270.146,468.58z M270.254,476.519h-0.008
			c0,0-1.136-0.034-3.336-0.102c-1.101-0.033-2.466-0.075-4.09-0.125c-1.624-0.015-3.5-0.171-5.623-0.353
			c-8.479-0.601-20.975-2.053-36.265-6.417c-1.905-0.56-3.869-1.109-5.867-1.721c-1.976-0.682-4.001-1.381-6.074-2.097
			c-2.088-0.672-4.155-1.551-6.285-2.399c-2.124-0.865-4.32-1.683-6.473-2.728c-8.757-3.839-17.879-8.79-27.052-14.923
			c-18.3-12.257-36.875-29.531-51.732-52.215c-7.381-11.34-13.862-23.938-18.919-37.602c-0.697-1.684-1.185-3.451-1.787-5.185
			c-0.564-1.746-1.183-3.483-1.707-5.258c-0.493-1.783-0.988-3.573-1.485-5.371c-0.248-0.898-0.497-1.799-0.746-2.7
			c-0.206-0.913-0.411-1.828-0.618-2.745c-0.409-1.833-0.82-3.673-1.233-5.52c-0.39-1.852-0.661-3.733-0.998-5.608
			c-0.724-3.744-1.116-7.565-1.581-11.4c-0.272-1.909-0.353-3.863-0.499-5.811c-0.125-1.947-0.29-3.909-0.382-5.86
			c-0.036-1.937-0.071-3.88-0.107-5.829l-0.063-2.928c0.01-1.074,0.052-2,0.076-3.009c0.057-1.979,0.114-3.964,0.172-5.956
			c0.092-1.99,0.298-3.979,0.442-5.977c0.229-4.003,0.865-7.988,1.367-12.007c1.293-7.994,2.899-16.043,5.291-23.961
			c1.042-4.003,2.518-7.892,3.823-11.854c0.738-1.95,1.526-3.887,2.29-5.837l1.165-2.922l1.3-2.872
			c3.342-7.727,7.458-15.173,11.935-22.445c1.15-1.8,2.302-3.604,3.456-5.411c1.237-1.751,2.476-3.505,3.717-5.263
			c1.21-1.78,2.554-3.466,3.888-5.163l1.998-2.551l1.001-1.276l1.061-1.229c1.415-1.639,2.832-3.281,4.25-4.925
			c1.451-1.615,2.98-3.163,4.471-4.751c0.756-0.783,1.487-1.593,2.265-2.357l2.365-2.264l2.369-2.267
			c0.784-0.763,1.58-1.514,2.418-2.218c1.653-1.437,3.308-2.876,4.964-4.317c1.678-1.414,3.436-2.737,5.154-4.112
			c0.868-0.675,1.718-1.377,2.604-2.031l2.69-1.922l2.694-1.924c0.893-0.651,1.798-1.283,2.738-1.866
			c1.857-1.199,3.716-2.399,5.577-3.6c1.882-1.167,3.823-2.241,5.735-3.368c0.965-0.548,1.909-1.134,2.892-1.651l2.96-1.533
			l2.963-1.533l1.483-0.767l1.518-0.696l6.082-2.78c2.049-0.879,4.139-1.669,6.208-2.509c1.042-0.403,2.066-0.852,3.123-1.218
			l3.173-1.088l3.175-1.088l1.588-0.544l1.613-0.468l6.459-1.863c2.165-0.579,4.361-1.045,6.542-1.573
			c1.094-0.25,2.182-0.529,3.281-0.754l3.313-0.605l3.314-0.607c1.105-0.205,2.208-0.425,3.325-0.551l6.686-0.894
			c1.11-0.172,2.241-0.245,3.368-0.34l3.383-0.278l3.385-0.277c1.124-0.079,2.227-0.083,3.341-0.127l6.728-0.198
			c9.006,0.035,18.015,0.58,26.941,1.815c8.902,1.349,17.743,3.155,26.363,5.729c8.594,2.627,17.05,5.708,25.162,9.509
			c8.088,3.837,15.954,8.113,23.393,13.009c7.403,4.937,14.525,10.257,21.134,16.12c1.683,1.43,3.239,2.996,4.862,4.485l2.408,2.26
			l2.298,2.365c1.515,1.591,3.09,3.124,4.549,4.759c1.449,1.645,2.896,3.288,4.34,4.928c11.307,13.336,20.667,28.074,27.656,43.606
			l1.333,2.898l1.193,2.951c0.783,1.97,1.614,3.918,2.351,5.896c1.364,3.996,2.862,7.932,3.948,11.978
			c2.443,8.013,4.086,16.165,5.391,24.264c0.532,4.071,1.155,8.09,1.406,12.209c0.146,2.033,0.381,4.115,0.449,6.091
			c0.063,1.972,0.125,3.938,0.188,5.899l0.047,1.469l0.022,0.734l0.01,0.486l-0.008,0.375l-0.064,2.994
			c-0.044,1.994-0.087,3.981-0.131,5.962c-0.14,1.977-0.279,3.947-0.419,5.912c-0.142,1.964-0.258,3.925-0.536,5.863
			c-0.24,1.942-0.479,3.878-0.716,5.807c-0.103,0.967-0.262,1.924-0.437,2.877c-0.166,0.954-0.333,1.906-0.498,2.857
			c-0.354,1.896-0.616,3.806-1.042,5.675c-0.424,1.869-0.846,3.731-1.267,5.587c-0.218,0.926-0.404,1.858-0.646,2.774
			c-0.255,0.912-0.51,1.823-0.764,2.732c-0.509,1.819-1.016,3.631-1.521,5.436c-0.561,1.787-1.174,3.551-1.756,5.315
			c-0.604,1.758-1.131,3.536-1.838,5.24c-5.185,13.808-11.762,26.561-19.35,37.957c-7.608,11.389-16.206,21.398-25.154,30.088
			c-8.968,8.684-18.386,15.943-27.7,22.007c-9.322,6.06-18.571,10.919-27.438,14.641c-2.178,1.021-4.405,1.799-6.549,2.644
			c-2.15,0.828-4.243,1.668-6.351,2.315c-2.092,0.689-4.135,1.362-6.129,2.02c-2.022,0.561-3.994,1.107-5.915,1.64
			c-0.96,0.264-1.908,0.524-2.843,0.781c-0.94,0.234-1.878,0.426-2.796,0.636c-1.84,0.409-3.626,0.806-5.357,1.191
			c-3.477,0.704-6.77,1.186-9.814,1.727c-3.065,0.409-5.911,0.717-8.513,1.034c-1.292,0.182-2.567,0.225-3.764,0.317
			c-1.199,0.081-2.337,0.158-3.411,0.23c-1.075,0.071-2.087,0.14-3.035,0.202c-0.951,0.068-1.786,0.045-2.588,0.07
			c-1.59,0.026-2.928,0.049-4.005,0.067c-2.154,0.036-3.267,0.056-3.267,0.056L270.254,476.519z"/>
	</g>
	<path fill="#FFFFFF" stroke="#000000" stroke-width="3.1645" d="M270.239,291.41"/>
	<path d="M210.998,551.155c-3.924,3.766-18.956,36.202-22.025,41.013c-3.26,4.684-19.874,14.572-23.165,14.431
		c-3.038,0.142-10.158-6.188-10.253-14.811c0.095-8.781,0.491-21.439,14.81-35.695c14.162-14.226,53.544-72.152,53.544-72.152
		s-4.968-10.506-1.14-15.95c4.083-5.632,26.583-42.15,26.583-42.15l-6.456-28.861c0,0-7.737-0.68-4.937-12.151
		c2.195-9.228-4.779-49.051-4.937-54.683c0.158-5.443-18.038-6.235-14.81-18.229c3.101-11.74,12.532-44.81,12.532-44.81
		l-17.468-47.468l-31.519,10.253l11.013,34.557c-12.397-0.467-26.223,7.268-26.962,12.912c-0.071,1.653,3.418,5.316,3.418,5.316
		c-8.829-2.279-16.345-1.883-17.849-14.431c-1.661-12.769-1.266-19.493-6.835-26.582c-5.506-7.152-9.494-26.203-9.494-26.203
		l7.975-17.468l21.266-6.076c0,0,33.291-34.937,42.912-34.937c0,0-3.302-10.173,4.557-9.494c13.908,1.187,34.557-6.836,34.557-6.836
		s3.481,45.602,3.039,63.417c-0.26,13.798,1.898,55.823,1.898,55.823s22.279-11.139,23.163-15.19
		c-0.093,2.468,26.203,23.165,26.203,23.165c2.186-7.247,6.933-19.905,10.254-21.646c-6.486-6.962-13.672-22.025-13.672-22.025
		l7.977-9.494c0,0-12.704-25.994-14.813-39.493c-1.802-13.481-6.455-34.937-6.455-34.937l33.419-6.076c0,0,6.836,12.5,9.874,15.569
		c3.291,3.26,9.493-0.759,9.493-0.759s2.5,2.437,5.695,7.215c3.134,4.715,58.514,26.867,65.695,32.278
		c7.059,5.665,45.951,24.684,45.951,24.684c-5.665,10.253-8.829,20.538-5.695,24.684c-9.463,0.601-30.824-9.684-35.697-11.393
		c-4.62-1.456-19.651-3.829-25.063-3.797c-5.665-0.032-53.164-16.709-53.164-16.709c0.031,14.326-3.672,47.379-1.521,65.696
		c2.343,20.601,47.468,71.393,47.468,71.393c-17.436-1.741-45.916-6.488-50.506-11.394c6.172,15.981,22.785,37.216,22.785,37.216
		s-23.733-3.038-30.001-9.494c-0.062,7.247-16.706,72.152-16.706,72.152c5.568,10.253,7.213,19.746,7.213,19.746l-4.176,3.797
		l5.695,15.19c0,0-0.791,69.62,0.761,74.431c-5.902,1.123-9.493,2.277-9.493,2.277l1.137,9.874c4.036,2.421,5.405,0.447,5.315,5.316
		c-0.488,10.158,5.05,19.256,6.456,22.025c1.758,2.769,2.154,15.427-8.733,17.469c-11.265,1.914-17.198,1.519-24.303-3.038
		c-5.031-3.532-5.695-20.128-5.695-20.128l-5.319-3.797c-0.473-15.031,3.857-20.444,4.179-22.783
		c-2.277-0.159-12.531,0.759-12.531,0.759s2.737-7.643,1.897-19.367c-0.742-12.01-3.795-23.925-3.795-23.925
		s-20.682,44.352-20.128,46.71C244.653,558.481,213.008,554.13,210.998,551.155L210.998,551.155z"/>
	<path fill="#FFFFFF" stroke="#000000" stroke-width="3" d="M248.593,180.904l-2.278-40.254c0,0,3.834-9.771-1.519-9.113
		c-5.68,0.917-5.68-1.852-6.835-6.076c-0.723-2.66-8.493-20.111-4.557-22.786c-1.958-6.226-3.038-11.771-3.038-11.771
		c0.838-4.731,14.058-12.671,26.202-12.912c13.008-0.522,22.896,4.62,26.583,8.734c-0.126,1.028-1.736,22.776-7.976,41.012
		c-3.622,10.253,8.733,12.531,8.733,12.531c1.489,4.446,6.455,34.937,6.455,34.937c-0.219,17.175-12.086,49.81-16.326,56.582
		L248.593,180.904L248.593,180.904z"/>
	<path d="M283.15,86.728c-3.687-4.114-13.575-9.257-26.583-8.734c-12.144,0.24-25.363,8.18-26.202,12.912l0.759,3.038
		c-9.415-1.44-18.451-3.027-18.987-7.595c-1.108-12.437,18.228-18.607,18.228-18.607c-1.535-19.542-3.909-41.693-3.798-47.468
		c5.032-8.861,16.817-13.608,30.38-13.671c15.001,0.063,31.337,8.037,30.379,14.81c-1.138,8.592-4.936,46.33-4.936,46.33
		c12.501,3.006,17.247,6.961,15.949,14.43c-0.695,5.142-10.767,8.157-15.189,8.735V86.728L283.15,86.728z"/>
	
	<path fill="#FFFFFF" stroke="#000000" stroke-width="1.5823" d="M451.755,217.36c-2.979,6.436-4.842,12.423-4.555,16.708
		c2.259,0.938,7.216,2.279,7.216,2.279c-0.21-1.934,2.855-15.68,4.175-15.949L451.755,217.36L451.755,217.36z"/>
	<path fill="#FFFFFF" stroke="#000000" stroke-width="2" stroke-linecap="round" d="M457.834,221.917
		c-0.661,1.124-2.738,8.541-2.661,9.873c2.099,5.491,14.25,11.746,16.71,14.811c6.156,7.492,10.285,1.876,6.076-3.418
		c-7.436-8.869-9.003-11.984,0-14.431c6.014-1.558,12.646-4.871,15.188-4.936c1.901-0.38,11.336-2.823,12.532-3.039
		c4.599-1.297,6.181-6.835,0-4.937c-6.478,1.662-30.607,5.024-34.557,5.317C467.161,221.26,458.656,222.644,457.834,221.917
		L457.834,221.917z"/>
	<polygon points="274.414,262.549 271.757,254.954 7.075,341.155 9.354,348.752 274.414,262.549 	"/>
	<path d="M140.746,301.663"/>
	<path d="M246.694,138.752l2.278,19.367c0,0,12.678-5.422,13.67-8.354c0.421,2.125,8.69,0.915,7.977-0.759
		c4.549,1.068,14.429,3.797,14.429,3.797l-3.037-19.367l-12.151,8.354c-0.037-2.342-8.613-1.804-8.355,0.759L246.694,138.752
		L246.694,138.752z"/>
	<path fill="#FFFFFF" stroke="#000000" stroke-width="2" stroke-linecap="round" stroke-linejoin="round" d="M190.492,264.828
		c-10.316-0.253-23.944,6.888-24.684,12.532c-0.071,1.653,3.418,5.316,3.418,5.316c1.653,0.49,2.444,1.677,3.418,1.519
		c0.609,2.928,3.473,8.167,5.316,9.874c2.413,2.547,24.434-4.446,26.203-5.696c4.889-2.635,2.677-8.833,1.898-12.912
		c-1.559-5.941-3.141-10.491-12.532-7.595L190.492,264.828L190.492,264.828z"/>
	<path fill="none" stroke="#000000" stroke-width="1.5823" d="M171.884,284.194c-0.213-1.424-0.213-5.182,1.899-6.076
		c1.843-0.688,19.747-10.253,19.747-10.253"/>
	<path d="M274.414,237.106c0.831-0.125,1.583-0.877,1.521-1.899c0.063-0.831-0.689-1.583-1.521-1.519
		c-1.02-0.063-1.771,0.688-1.897,1.519C272.644,236.229,273.395,236.981,274.414,237.106L274.414,237.106z"/>
	<path d="M274.414,235.208"/>
	<path d="M274.794,244.322c0.848,0.175,1.598-0.577,1.521-1.52c0.077-0.909-0.673-1.661-1.521-1.519
		c-1.004-0.143-1.755,0.609-1.897,1.519C273.039,243.745,273.79,244.497,274.794,244.322L274.794,244.322z"/>
	<path d="M274.794,242.802"/>
	<polygon fill="#FFFFFF" points="253.15,261.41 271.757,254.954 274.414,263.309 254.669,269.004 253.15,261.41 	"/>
	<path fill="none" stroke="#000000" stroke-width="3" d="M261.504,150.904l2.279,59.62 M274.037,149.765l3.038,75.189"/>
	<path d="M275.175,129.259c6.239-18.172,7.85-41.503,7.976-42.531c-3.687-4.114-13.575-9.257-26.583-8.734
		c11.425,6.994,8.354,17.468,8.354,17.468c4.258-1.772,6.589-5.554,9.116-4.177c4.636,2.8,1.472,19.019-3.418,19.747
		L275.175,129.259L275.175,129.259z"/>
</g>
</svg>
