
<svg  xmlns="http://www.w3.org/2000/svg" fill="none" width="14" height="14" viewBox="0 0 1000 1000" >
<path d="M575.7,13.7c58.1,15.5,92.5,75.1,76.9,133.2c-15.6,58-75.2,92.5-133.2,76.8c-58-15.5-92.4-75.1-76.9-133.2C458.1,32.5,517.7-1.8,575.7,13.7z" fill="#000"/>
<path d="M184.4,347.2c-5.9-11.2-9.3-23.9-9.3-37.5c0-45,36.5-81.5,81.6-81.5c0.1,0-7.2,0.2,0.3,0c7.5-0.1,50.4,6.1,50.4,6.1L386.8,132l-129.5,4.2L184.5,29.1l-36,124.4l-124.4,36l107.2,72.7l-4.2,129.5L184.4,347.2z"fill="#000"/>
<path d="M253.5,559.4l-44.7-16.2l-37.7,29.3l1.6-47.7l-39.4-26.8l45.8-13.3l13.2-45.8l26.8,39.4l47.6-1.5l-29.2,37.6L253.5,559.4z" fill="#000"/>
<path d="M925.4,599.9l-58.2-40.5L801.8,587l20.6-67.9L776,465.5l70.9-1.4l36.7-60.6l23.3,66.9l69,16.2l-56.4,42.9L925.4,599.9z" fill="#000"/>
<path d="M952.8,209.3c-7.7-29-37.5-46.3-66.5-38.5c-6.4,1.7-12.1,4.7-17.2,8.3c0,0-168.5,94-420.1,97.8c-94.4,1.4-174.2-21.4-174.2-21.4c-5.6-2-11.4-3.2-17.6-3.2c-30-0.1-54.4,24.2-54.4,54.3c0,30,24.3,54.4,54.3,54.4c0.1,0,58.5,4,149.5,6c27.4,0.6,54.7,0,81.7-1.4l-64.5,239.5l205.8,55.6l-69.9,261c-7.7,29,9.4,58.7,38.4,66.4c29,7.8,58.7-9.3,66.5-38.2c0,0,81.7-313.7,82-314.5c7.7-29-9.3-58.7-38.2-66.5l-150.6-40.9l46.9-174.1c177.2-25.5,289.8-70.3,315.4-80.1C945.4,263.8,960.1,236.3,952.8,209.3z" fill="#000"/>
<path d="M411.3,651l-7,26l-247.2-66.3c-3.7-1.9-7.5-3.6-11.8-4.8c-29-7.7-58.8,9.4-66.5,38.4c-7.7,29.1,9.5,58.9,38.4,66.7c1.2,0.3,288.6,77.1,315.2,84.3c26.8,7.2,56-10.9,63.6-38.8l28.7-106L411.3,651z" fill="#000"/>
</svg>