<svg version="1.1" xmlns="http://www.w3.org/2000/svg" viewBox="0 0 1000 1000">
<path d="M987.5,614.8c-2.7-12-63.4-277.4-69.1-301.3c-4.3-18.1-12.3-33.7-23.1-45.2c-14-14.9-32.4-22.8-53.1-22.9l-87.3-0.4c-2.4-28.3-10.4-54.6-23.3-75.3c-16.4-26.5-38.8-41.1-63-41.1s-46.6,14.6-63,41.1c-12.8,20.6-20.8,46.5-23.2,74.6l-242.1-1c-2.5-27.7-10.5-53.3-23.1-73.6c-16.4-26.5-38.8-41.1-63-41.1c-24.2,0-46.6,14.6-63,41.1c-14.7,23.7-23.1,54.5-23.9,87.4c-24.8,14.9-44.4,40.2-51.3,69.5L12.5,770.5c-6.1,26-1,51.8,13.9,70.6c13.8,17.5,35.2,27.6,58.6,27.7l581.3,2.5h0.3c0,0,0,0,0,0c45.4,0,89.5-36.8,100.4-83.8l17.3-74.1L915,713c23.4-0.1,44.8-10.2,58.6-27.7C988.5,666.5,993.5,640.8,987.5,614.8z M623.1,180.7c12.5-20.2,28.7-31.4,45.5-31.4c16.8,0,33,11.1,45.5,31.4c10.9,17.6,17.8,40,20.1,64.3l-131.2-0.5C605.4,220.3,612.3,198.1,623.1,180.7z M208.6,180.7c12.5-20.2,28.7-31.4,45.5-31.4c16.8,0,33,11.1,45.5,31.4c10.7,17.2,17.5,38.9,19.9,62.7l-102.9-0.4h-0.3c-9.5,0-19,1.6-28.1,4.6C190.3,222.2,197.3,198.8,208.6,180.7z M925.2,647.1c-2.2,2.8-5.7,4.2-10.4,4.2l-118.5,0.3l50.2-242.3c3.5-16.7-7.3-33-24-36.5c-16.7-3.5-33,7.3-36.5,24L725.4,689c-0.5,2.6-0.7,5.2-0.6,7.7l-17.9,76.8c-4.4,18.9-23.6,36.1-40.3,36.1L85.3,807c-4.7,0-8.2-1.4-10.4-4.2c-3.1-3.9-3.9-10.8-2.2-18.3L176,340.7c0.7-3.1,1.8-6.1,3.3-9c3.3,8.6,7.2,16.6,11.8,23.9c7,11.3,15.1,20.5,24,27.2c-0.1,1.2-0.2,2.4-0.2,3.6c0,21.6,17.6,39.2,39.2,39.2c21.6,0,39.2-17.6,39.2-39.2s-17.6-39.2-39.2-39.2c-12.7,0-23.9,6-31.1,15.4c-5.2-4.8-10-10.7-14.4-17.9c-5.8-9.3-10.5-20.1-13.9-31.7c6.8-5.2,14.5-8.4,21.8-8.4l369.8,1.5c4,18.3,10.6,35.2,19.4,49.4c7,11.3,15.1,20.5,24,27.2c-0.1,1.2-0.2,2.4-0.2,3.6c0,21.6,17.6,39.2,39.2,39.2c21.6,0,39.2-17.6,39.2-39.2s-17.6-39.2-39.2-39.2c-12.7,0-23.9,6-31.1,15.4c-5.2-4.8-10-10.7-14.4-17.9c-6.9-11.1-12.2-24.2-15.8-38.5l234.6,1c7.6,0,13.2,6.9,16.4,20.5c5.6,23.7,68.3,298.1,69,300.9c0,0,0,0.1,0,0.1C929.1,636.3,928.3,643.1,925.2,647.1z M254.1,376.1c-4.6,0-9.1-0.8-13.5-2.4c3.4-3.6,8.2-5.9,13.5-5.9c10.3,0,18.6,8.3,18.6,18.6s-8.3,18.6-18.6,18.6c-7.4,0-13.9-4.4-16.8-10.7c5.5,1.6,11.1,2.4,16.8,2.4c5.7,0,10.3-4.6,10.3-10.3C264.4,380.7,259.8,376.1,254.1,376.1z M668.6,376.1c-4.6,0-9.1-0.8-13.5-2.4c3.4-3.6,8.2-5.9,13.5-5.9c10.3,0,18.6,8.3,18.6,18.6s-8.3,18.6-18.6,18.6c-7.4,0-13.9-4.4-16.8-10.7c5.5,1.6,11.1,2.4,16.8,2.4c5.7,0,10.3-4.6,10.3-10.3C678.9,380.7,674.3,376.1,668.6,376.1z"/>
<path d="M771.1,351.1c-5.6-1.2-11.1,2.2-12.3,7.8l-92.1,411H172.8c-5.7,0-10.3,4.6-10.3,10.3c0,5.7,4.6,10.3,10.3,10.3h502.1c4.8,0,9-3.3,10-8l93.9-419C780.1,357.8,776.6,352.3,771.1,351.1z"/>
<path d="M366.7,501.6h12.5l1.2-11.3c1.7-17.1,3.2-27.5,4.4-31c1.2-3.5,2.9-5.9,5.2-7.2c2.3-1.3,12-2.2,29-2.8c41.2-1.1,68.9-1.6,83.1-1.6l12.5,0.2l2.2,1.8c-13.1,24.8-29.7,54.3-50.1,88.4c-43.4,73.3-74.2,124.4-92.4,153.3l3.4,5.1c7.3-0.9,13.7-1.4,19.4-1.4c3.8,0,10.1,0.3,18.8,0.8c23.2-61.4,68.1-151.5,134.5-270.5v-11.7c-24.1,1.5-59.9,2.2-107.4,2.2c-29.4,0-53.9-0.7-73.4-2.2l-3.6,3.6c1.5,11.2,2.2,23.3,2.2,36.2C368.1,468.2,367.7,484.2,366.7,501.6z"/>
</svg>