<?xml version="1.0" standalone="no"?>
<!DOCTYPE svg PUBLIC "-//W3C//DTD SVG 20010904//EN"
 "http://www.w3.org/TR/2001/REC-SVG-20010904/DTD/svg10.dtd">
<svg version="1.0" xmlns="http://www.w3.org/2000/svg"
 width="1024.000000pt" height="1024.000000pt" viewBox="0 0 1024.000000 1024.000000"
 preserveAspectRatio="xMidYMid meet">

<g transform="translate(0.000000,1024.000000) scale(0.100000,-0.100000)"
fill="#000000" stroke="none">
<path d="M10215 10220 c10 -11 20 -20 22 -20 1 0 3 9 3 20 0 14 -7 20 -22 20
-20 0 -21 -1 -3 -20z"/>
<path d="M5590 9054 c-61 -17 -274 -117 -285 -133 -3 -6 -26 -16 -51 -22 -92
-23 -124 -120 -67 -203 22 -34 26 -49 24 -105 -2 -70 26 -180 55 -212 13 -14
14 -26 5 -73 -6 -30 -17 -69 -26 -86 -24 -47 -16 -73 25 -85 50 -14 60 -23 60
-50 0 -14 9 -29 20 -35 12 -6 20 -21 20 -36 0 -13 7 -27 15 -31 9 -3 24 -22
35 -43 11 -21 26 -40 35 -44 35 -13 120 -5 192 18 19 6 25 2 40 -28 19 -41 30
-39 31 4 1 35 114 322 129 327 5 2 17 -13 27 -34 34 -75 110 -142 182 -162 33
-9 42 -17 53 -48 18 -50 92 -127 146 -152 70 -33 97 -28 143 24 26 29 48 45
63 45 50 0 98 21 129 57 22 25 42 37 63 39 32 2 67 34 67 61 0 34 -33 75 -74
93 -24 10 -47 23 -51 29 -3 6 -16 9 -28 6 -20 -5 -22 -2 -24 42 -1 40 -7 53
-32 75 -19 17 -43 28 -61 28 -16 0 -31 4 -34 9 -3 5 6 40 20 77 49 129 19 288
-70 377 -44 45 -114 67 -211 67 l-71 0 -36 49 c-46 61 -110 114 -173 142 -65
29 -205 35 -285 13z m1092 -976 c7 -19 -2 -38 -18 -38 -8 0 -14 8 -14 18 0 30
23 44 32 20z"/>
<path d="M3250 8994 c-113 -22 -210 -86 -288 -190 -73 -97 -85 -139 -80 -282
4 -116 4 -118 55 -227 69 -149 74 -168 76 -289 2 -89 -1 -107 -17 -125 -40
-45 -6 -80 154 -161 46 -23 113 -61 148 -83 64 -40 65 -40 81 -20 9 11 32 40
53 64 20 24 47 64 60 89 23 44 25 45 83 52 137 17 155 26 155 84 0 19 7 48 15
65 9 16 14 33 11 38 -3 4 1 17 9 27 8 10 15 33 15 50 0 27 5 32 40 43 48 14
50 27 16 102 -14 30 -30 76 -37 102 -11 44 -10 50 11 72 13 14 20 31 17 42 -3
10 -7 55 -9 101 -2 81 -2 84 24 100 42 25 70 84 62 129 -10 60 -29 83 -62 77
-22 -4 -30 0 -43 24 -13 24 -26 31 -60 37 -24 4 -100 22 -169 41 -121 33 -259
50 -320 38z"/>
<path d="M3520 7756 c0 -13 13 -41 28 -62 58 -80 162 -390 208 -616 18 -89 27
-180 34 -328 5 -113 12 -233 16 -267 3 -35 4 -63 1 -63 -5 0 -259 296 -351
409 -16 20 -62 74 -101 121 -221 262 -429 570 -464 688 l-18 57 -16 -32 c-21
-40 -21 -105 -2 -238 9 -56 16 -133 18 -171 2 -65 1 -69 -20 -72 -35 -5 -42
27 -49 223 -4 96 -9 175 -12 175 -3 0 -32 -27 -64 -60 -33 -33 -143 -128 -246
-210 -103 -83 -200 -161 -216 -175 l-29 -25 6 -143 c3 -78 15 -196 25 -262 37
-222 37 -213 -2 -229 -34 -14 -53 -33 -43 -43 3 -3 16 2 29 11 29 20 101 21
118 1 10 -12 9 -16 -4 -21 -20 -8 -21 -24 -1 -24 22 0 65 -22 65 -33 0 -5 -8
-16 -17 -24 -10 -8 -12 -12 -6 -8 19 9 54 -14 52 -33 -1 -9 1 -25 6 -35 4 -10
4 -22 -1 -26 -5 -4 -35 -32 -67 -61 l-58 -53 -29 21 c-41 30 -42 28 -14 -20
25 -45 64 -158 64 -187 -1 -29 -57 44 -77 98 -10 28 -20 51 -23 51 -13 0 -50
-115 -50 -153 1 -72 19 -178 40 -225 37 -83 236 -306 285 -318 36 -9 98 21
137 65 17 19 47 69 67 110 39 81 40 98 31 321 -7 190 -2 270 26 363 31 108 39
121 54 81 14 -36 78 -114 148 -178 40 -37 65 -73 102 -150 62 -124 89 -229 97
-366 5 -93 2 -118 -22 -214 l-27 -109 7 -475 8 -474 51 6 c28 4 60 7 70 9 17
2 22 -13 43 -148 30 -198 62 -354 77 -386 12 -24 9 -30 -51 -105 -91 -112
-116 -170 -121 -270 -2 -51 2 -111 12 -159 9 -43 21 -118 26 -168 10 -89 10
-90 -17 -126 -73 -99 -212 -247 -377 -403 -160 -151 -193 -179 -270 -217 -48
-25 -90 -51 -93 -58 -3 -8 -17 -20 -32 -27 -59 -31 -117 -116 -150 -219 -7
-20 -30 -60 -52 -87 -90 -114 -109 -204 -69 -325 24 -72 71 -135 100 -135 28
0 83 72 144 189 52 99 137 221 154 221 4 0 27 -28 52 -62 63 -87 206 -235 254
-263 57 -33 118 -47 149 -36 17 7 38 35 66 88 42 80 263 395 281 401 5 2 10
-5 10 -15 1 -41 41 -401 67 -590 29 -219 28 -216 84 -187 17 8 34 13 37 10 7
-8 -14 -91 -42 -164 -18 -46 -30 -61 -66 -82 -58 -34 -72 -69 -44 -108 28 -37
74 -51 168 -51 121 -1 254 37 298 86 13 14 20 51 28 138 7 66 16 127 21 136 5
9 46 32 91 52 97 40 92 20 60 237 -12 80 -40 328 -62 551 -22 223 -45 432 -50
465 -19 115 -29 102 148 195 323 170 443 273 641 547 29 41 51 76 48 78 -2 2
-42 27 -88 55 -71 43 -106 57 -224 86 -77 20 -162 46 -189 60 -26 13 -54 22
-61 19 -7 -2 -58 -62 -113 -133 -101 -130 -215 -262 -239 -276 -19 -11 -22 2
-31 137 l-8 118 41 32 c48 39 126 90 217 141 l66 38 -86 96 c-150 165 -205
213 -322 284 -62 37 -118 67 -125 67 -6 0 -54 -48 -106 -106 -145 -164 -149
-167 -154 -163 -2 3 50 66 115 141 66 75 120 139 120 142 0 2 -28 21 -62 42
-91 54 -90 53 -74 75 7 11 28 36 47 57 443 493 600 638 1069 989 140 105 264
201 275 213 11 12 33 29 50 37 16 9 28 13 25 10 -20 -19 -218 -179 -320 -257
-452 -347 -499 -387 -715 -604 -135 -136 -417 -440 -423 -455 -1 -5 62 -43
140 -86 228 -123 293 -170 414 -302 126 -136 193 -194 273 -234 58 -29 165
-59 213 -59 36 0 121 -38 211 -94 105 -65 186 -86 342 -92 96 -4 161 -12 250
-34 229 -54 288 -51 460 28 91 42 108 46 184 48 57 1 91 -2 105 -11 30 -20
151 -38 198 -31 74 12 148 44 216 94 107 79 206 122 284 122 20 0 44 7 52 16
9 8 16 11 16 5 0 -16 76 -13 144 4 172 45 290 136 360 279 35 70 45 82 100
117 34 21 83 53 109 71 48 33 146 144 182 206 l19 32 -159 161 c-88 88 -416
413 -730 722 -518 510 -639 627 -864 825 -39 35 -71 70 -71 77 0 20 -48 42
-93 43 -21 1 -43 5 -50 9 -18 11 -50 11 -68 0 -9 -6 -25 -7 -35 -3 -16 6 -16
9 -4 16 11 7 7 10 -15 10 -21 0 -26 -3 -16 -9 21 -14 4 -33 -19 -21 -11 6 -21
6 -24 1 -4 -5 -16 -4 -30 2 -13 7 -22 15 -20 19 3 5 0 8 -7 8 -6 0 -9 -8 -6
-19 5 -22 -25 -31 -103 -31 -41 0 -49 -3 -54 -22 -5 -18 -8 -20 -15 -9 -8 12
-13 12 -35 -2 -33 -22 -36 -21 -33 4 1 12 -3 24 -9 26 -12 4 -12 -25 -1 -44 4
-6 -1 -14 -10 -17 -14 -6 -14 -8 3 -20 10 -8 16 -18 11 -22 -4 -4 -7 -2 -7 4
0 7 -9 12 -20 12 -16 0 -19 6 -18 35 1 19 5 35 10 35 5 0 7 4 3 10 -3 5 -12 7
-20 3 -9 -3 -22 0 -30 7 -20 16 -19 0 1 -28 18 -26 12 -52 -10 -52 -12 0 -14
5 -6 25 10 27 1 38 -20 24 -22 -13 -30 -11 -30 7 0 9 8 23 18 30 14 11 14 13
2 13 -14 0 -80 -91 -80 -109 0 -4 -7 -10 -15 -14 -8 -3 -15 -2 -15 3 0 5 7 14
15 21 8 7 15 21 15 31 0 11 6 19 14 19 7 0 16 9 19 19 3 14 1 18 -9 14 -8 -3
-14 -9 -14 -14 0 -5 -6 -9 -14 -9 -8 0 -28 -19 -45 -42 -28 -37 -29 -43 -14
-49 12 -4 13 -8 5 -13 -7 -4 -16 -5 -21 -2 -13 9 -34 -22 -27 -39 3 -9 2 -14
-3 -11 -5 3 -14 -1 -20 -8 -10 -11 -8 -17 6 -24 10 -6 14 -14 10 -18 -5 -5
-13 -2 -18 6 -9 13 -12 12 -22 -3 -7 -10 -20 -28 -29 -39 -10 -12 -18 -27 -18
-33 0 -7 -7 -15 -15 -19 -8 -3 -15 -12 -15 -21 0 -8 -4 -15 -8 -15 -10 0 -77
-103 -129 -196 -19 -35 -36 -64 -38 -64 -2 0 -15 20 -30 45 -14 25 -64 90
-110 144 -134 159 -173 217 -250 376 -87 179 -103 229 -105 332 -2 139 -9 133
71 62 232 -210 318 -256 399 -214 50 26 192 126 291 206 53 42 108 84 122 93
28 19 26 22 42 -96 5 -31 12 -48 23 -51 10 -2 28 -26 41 -53 l25 -49 8 30 c10
36 4 55 -17 55 -8 0 -15 5 -15 11 0 6 7 9 14 6 26 -10 28 28 11 180 -20 174
-52 309 -91 384 -38 72 -40 79 -17 49 68 -85 111 -259 132 -534 6 -82 14 -123
24 -134 19 -18 20 -11 47 291 10 119 22 222 25 228 4 6 1 16 -7 22 -21 18 -39
65 -28 72 16 10 11 35 -6 35 -12 0 -15 7 -12 25 3 14 -1 30 -9 37 -8 6 -12 17
-9 25 3 7 -3 19 -14 25 -15 9 -16 16 -8 31 10 19 3 30 -27 40 -6 2 -4 11 5 21
13 16 12 20 -3 31 -13 9 -16 20 -12 38 5 18 2 28 -12 35 -16 10 -16 14 -5 33
12 18 12 23 0 30 -10 6 -10 13 -2 26 5 10 8 26 6 36 -3 14 -7 16 -18 6 -8 -6
-14 -9 -14 -5 0 11 -58 -23 -95 -56 -84 -73 -94 -179 -28 -280 l26 -39 -24
-27 c-67 -77 -112 -120 -189 -181 -108 -87 -203 -151 -222 -151 -8 0 -47 40
-86 89 -39 49 -93 110 -120 135 -66 62 -135 196 -162 311 -13 55 -37 118 -61
163 -23 42 -45 98 -51 132 -5 32 -17 65 -26 72 -10 8 -57 22 -107 32 -189 37
-432 98 -482 121 l-53 24 0 -23z m343 -429 c87 -191 111 -332 111 -642 -1
-216 -16 -483 -30 -542 -17 -67 -23 16 -27 400 -5 462 -5 464 -76 729 -17 63
-31 120 -31 126 0 30 18 5 53 -71z m194 59 c24 -21 26 -27 18 -52 -8 -23 -19
-29 -65 -39 -30 -7 -63 -15 -72 -20 -21 -8 -23 3 -8 57 11 40 51 78 81 78 10
0 30 -11 46 -24z m-1054 -176 c110 -195 485 -592 833 -880 34 -29 50 -50 36
-50 -14 0 -262 190 -377 288 -141 121 -357 339 -455 460 -93 114 -95 115 -200
87 -95 -26 -99 -14 -6 16 96 31 101 34 116 92 6 20 14 37 18 37 4 0 20 -22 35
-50z m-537 -1117 c4 -28 2 -65 -5 -92 -13 -51 -90 -166 -103 -153 -12 12 8 72
33 98 31 33 48 90 38 132 -9 39 -3 62 16 62 9 0 16 -18 21 -47z m3036 -11
c-18 -6 -14 -19 8 -25 11 -3 20 -10 20 -16 0 -15 -16 -14 -32 2 -7 7 -21 16
-30 20 -25 9 -23 30 2 22 12 -4 20 -2 20 5 0 6 5 8 12 4 9 -6 9 -9 0 -12z
m148 9 c0 -12 -28 -22 -34 -12 -3 5 -3 11 1 15 9 9 33 7 33 -3z m60 -12 c0
-11 -27 -12 -34 0 -3 4 -3 11 0 14 8 8 34 -3 34 -14z m119 -5 c-13 -16 -29
-10 -29 11 0 8 7 11 20 8 16 -4 18 -8 9 -19z m61 10 c0 -8 -4 -12 -10 -9 -5 3
-10 10 -10 16 0 5 5 9 10 9 6 0 10 -7 10 -16z m-313 -7 c-5 -17 -22 -18 -42
-3 -19 14 -18 15 13 14 18 -1 31 -6 29 -11z m173 4 c0 -5 -7 -11 -14 -14 -10
-4 -13 -1 -9 9 6 15 23 19 23 5z m184 0 c3 -5 -1 -11 -9 -15 -9 -3 -15 0 -15
9 0 16 16 20 24 6z m-718 -36 c-1 -26 -10 -32 -21 -15 -4 6 -1 17 5 25 17 20
18 19 16 -10z m179 -10 l0 -34 -22 22 c-19 20 -19 23 -5 35 24 18 27 15 27
-23z m75 -30 c0 -5 -13 4 -29 20 -18 19 -24 33 -17 37 10 7 46 -37 46 -57z
m200 33 c0 -4 -6 -8 -14 -8 -8 0 -17 4 -20 8 -2 4 4 8 15 8 10 0 19 -4 19 -8z
m-35 -18 c10 -11 13 -20 7 -20 -6 0 -14 5 -17 10 -3 6 -15 10 -25 10 -10 0
-22 5 -25 10 -12 19 42 10 60 -10z m215 -6 c0 -2 -7 -4 -15 -4 -8 0 -15 4 -15
10 0 5 7 7 15 4 8 -4 15 -8 15 -10z m-584 -11 c20 -27 16 -35 -6 -13 -11 11
-20 22 -20 25 0 11 13 4 26 -12z m54 -9 c0 -22 -16 -17 -17 6 -1 11 2 18 8 15
5 -4 9 -13 9 -21z m395 16 c3 -5 -1 -10 -9 -10 -9 0 -16 5 -16 10 0 6 4 10 9
10 6 0 13 -4 16 -10z m215 6 c0 -11 -19 -15 -25 -6 -3 5 1 10 9 10 9 0 16 -2
16 -4z m-752 -18 c-2 -6 -10 -14 -16 -16 -7 -2 -10 2 -6 12 7 18 28 22 22 4z
m367 1 c11 -17 -1 -21 -15 -4 -8 9 -8 15 -2 15 6 0 14 -5 17 -11z m-312 -26
c-7 -3 -13 -11 -13 -18 0 -7 -7 -15 -15 -19 -13 -5 -14 -2 -3 17 11 21 14 26
17 44 0 4 7 1 14 -6 10 -11 10 -14 0 -18z m133 -21 c-12 -11 -18 7 -10 30 l8
23 4 -23 c2 -13 1 -26 -2 -30z m39 28 c3 -5 1 -10 -4 -10 -6 0 -11 5 -11 10 0
6 2 10 4 10 3 0 8 -4 11 -10z m-309 -22 c-9 -5 -16 -16 -16 -23 0 -8 -4 -15
-10 -15 -14 0 -13 7 6 35 9 14 21 22 26 19 6 -4 4 -10 -6 -16z m516 -6 c-19
-6 -44 6 -37 18 4 7 14 6 28 -2 14 -7 17 -13 9 -16z m-137 9 c3 -5 1 -12 -4
-15 -5 -3 -11 1 -15 9 -6 16 9 21 19 6z m-195 -22 c0 -6 -4 -7 -10 -4 -5 3
-10 11 -10 16 0 6 5 7 10 4 6 -3 10 -11 10 -16z m60 -11 c0 -19 -16 -5 -17 14
-2 18 0 20 7 8 5 -8 10 -18 10 -22z m-189 -1 c-13 -13 -26 -3 -16 12 3 6 11 8
17 5 6 -4 6 -10 -1 -17z m599 2 c0 -5 -4 -9 -10 -9 -5 0 -10 7 -10 16 0 8 5
12 10 9 6 -3 10 -10 10 -16z m130 17 c0 -11 -19 -15 -25 -6 -3 5 1 10 9 10 9
0 16 -2 16 -4z m-96 -22 c4 -10 1 -14 -6 -12 -15 5 -23 28 -10 28 5 0 13 -7
16 -16z m196 12 c0 -11 -19 -15 -25 -6 -3 5 1 10 9 10 9 0 16 -2 16 -4z m-530
-27 c0 -6 -4 -7 -10 -4 -5 3 -10 11 -10 16 0 6 5 7 10 4 6 -3 10 -11 10 -16z
m100 11 c0 -5 -2 -10 -4 -10 -3 0 -8 5 -11 10 -3 6 -1 10 4 10 6 0 11 -4 11
-10z m-250 -4 c0 -3 -4 -8 -10 -11 -5 -3 -10 -1 -10 4 0 6 5 11 10 11 6 0 10
-2 10 -4z m-202 -18 c-2 -6 -10 -14 -16 -16 -7 -2 -10 2 -6 12 7 18 28 22 22
4z m92 3 c0 -6 -4 -13 -10 -16 -5 -3 -10 1 -10 9 0 9 5 16 10 16 6 0 10 -4 10
-9z m50 -7 c0 -8 -5 -12 -10 -9 -6 4 -8 11 -5 16 9 14 15 11 15 -7z m123 -25
c-8 -29 -13 -23 -13 14 0 22 3 28 9 18 5 -7 6 -22 4 -32z m312 31 c3 -5 -1
-10 -9 -10 -8 0 -18 5 -21 10 -3 6 1 10 9 10 8 0 18 -4 21 -10z m210 -21 c11
-17 0 -20 -21 -4 -17 13 -17 14 -2 15 9 0 20 -5 23 -11z m-376 -12 c6 -8 8
-16 5 -20 -10 -9 -34 4 -34 19 0 18 14 18 29 1z m-379 -13 c0 -8 -4 -12 -10
-9 -5 3 -10 10 -10 16 0 5 5 9 10 9 6 0 10 -7 10 -16z m90 -22 c0 -7 -4 -10
-10 -7 -5 3 -10 16 -10 28 0 18 2 19 10 7 5 -8 10 -21 10 -28z m-220 18 c0 -5
-7 -10 -16 -10 -8 0 -12 5 -9 10 3 6 10 10 16 10 5 0 9 -4 9 -10z m49 -16
c-14 -18 -24 -11 -15 11 3 9 11 13 16 10 8 -5 7 -11 -1 -21z m555 7 c3 -5 -1
-11 -9 -15 -9 -3 -15 0 -15 9 0 16 16 20 24 6z m416 -21 c0 -27 -19 -35 -38
-17 -12 13 -13 19 -3 31 16 19 41 10 41 -14z m-672 -5 c-3 -3 -9 2 -12 12 -6
14 -5 15 5 6 7 -7 10 -15 7 -18z m-240 -15 c-8 -13 -15 -16 -19 -8 -10 15 -2
28 17 28 12 0 12 -4 2 -20z m182 -2 c0 -19 -2 -20 -10 -8 -13 19 -13 30 0 30
6 0 10 -10 10 -22z m-90 -2 c0 -8 -4 -17 -9 -21 -12 -7 -24 12 -16 25 9 15 25
12 25 -4z m259 -12 c3 -16 1 -17 -13 -5 -19 16 -21 34 -3 29 6 -3 14 -13 16
-24z m-454 6 c-3 -5 -11 -10 -16 -10 -6 0 -7 5 -4 10 3 6 11 10 16 10 6 0 7
-4 4 -10z m812 -5 c3 -9 2 -19 -1 -23 -8 -8 -38 10 -44 26 -6 18 38 14 45 -3z
m-137 -5 c0 -5 -4 -10 -10 -10 -5 0 -10 5 -10 10 0 6 5 10 10 10 6 0 10 -4 10
-10z m-730 -4 c0 -3 -4 -8 -10 -11 -5 -3 -10 -1 -10 4 0 6 5 11 10 11 6 0 10
-2 10 -4z m93 -16 c-3 -11 -7 -20 -9 -20 -2 0 -4 9 -4 20 0 11 4 20 9 20 5 0
7 -9 4 -20z m527 -26 c0 -8 -4 -12 -10 -9 -5 3 -10 13 -10 21 0 8 5 12 10 9 6
-3 10 -13 10 -21z m-664 -19 c-3 -9 -11 -13 -16 -10 -8 5 -7 11 1 21 14 18 24
11 15 -11z m344 15 c0 -5 -4 -10 -10 -10 -5 0 -10 5 -10 10 0 6 5 10 10 10 6
0 10 -4 10 -10z m-160 -9 c0 -5 -7 -14 -15 -21 -16 -14 -18 -10 -9 14 6 17 24
22 24 7z m240 -11 c0 -11 -4 -20 -10 -20 -5 0 -10 9 -10 20 0 11 5 20 10 20 6
0 10 -9 10 -20z m-364 -15 c-9 -9 -16 -13 -16 -8 0 12 22 34 28 28 2 -2 -3
-11 -12 -20z m494 -1 c0 -8 -4 -14 -10 -14 -5 0 -10 9 -10 21 0 11 5 17 10 14
6 -3 10 -13 10 -21z m-290 -4 c-6 -11 -13 -20 -15 -20 -3 0 -5 9 -5 20 0 11 7
20 15 20 13 0 14 -4 5 -20z m488 -23 c4 -20 -25 -34 -39 -20 -14 14 1 45 20
41 9 -2 17 -11 19 -21z m-621 -9 c-3 -8 -6 -5 -6 6 -1 11 2 17 5 13 3 -3 4
-12 1 -19z m-867 -122 c44 -71 79 -131 77 -132 -9 -10 -167 237 -167 261 0 13
4 7 90 -129z m924 80 c-3 -9 -12 -16 -20 -16 -20 0 -17 28 4 32 22 5 24 4 16
-16z m-234 5 c0 -6 -4 -13 -10 -16 -5 -3 -10 1 -10 9 0 9 5 16 10 16 6 0 10
-4 10 -9z m80 0 c0 -5 -7 -14 -15 -21 -12 -10 -15 -10 -15 2 0 8 3 18 7 21 9
10 23 9 23 -2z m270 -20 c0 -11 -4 -23 -10 -26 -6 -4 -10 5 -10 19 0 14 5 26
10 26 6 0 10 -9 10 -19z m96 -18 c-8 -40 -16 -40 -16 1 0 22 4 35 10 31 6 -3
8 -18 6 -32z m174 11 c0 -8 -4 -12 -10 -9 -5 3 -10 13 -10 21 0 8 5 12 10 9 6
-3 10 -13 10 -21z m-396 -73 c-4 -19 -10 -29 -16 -23 -5 5 -4 20 2 37 14 36
22 28 14 -14z m-240 -6 c-6 -16 -24 -21 -24 -7 0 11 11 22 21 22 5 0 6 -7 3
-15z m666 0 c15 -17 5 -35 -20 -35 -22 0 -33 23 -17 39 15 15 22 14 37 -4z
m-374 -62 c-10 -10 -19 5 -10 18 6 11 8 11 12 0 2 -7 1 -15 -2 -18z m182 4 c4
-21 -25 -34 -40 -19 -8 8 -8 16 2 27 16 19 34 15 38 -8z m-255 -38 c-4 -13 -9
-17 -15 -11 -11 11 -3 32 12 32 4 0 6 -9 3 -21z m-9 -115 c8 -21 -1 -34 -24
-34 -25 0 -35 17 -20 35 16 20 36 19 44 -1z m-269 -1301 c-9 -15 -13 -19 -10
-8 4 11 10 29 13 40 3 11 7 14 9 8 3 -7 -3 -24 -12 -40z m-52 -146 c-20 -53
-39 -94 -41 -92 -3 2 12 47 33 100 21 52 40 94 42 91 2 -2 -13 -47 -34 -99z
m-73 -198 c-17 -46 -36 -88 -42 -94 -8 -7 -9 -4 -3 10 4 11 18 49 31 85 14 36
27 71 30 79 2 8 7 12 10 9 2 -3 -9 -43 -26 -89z m-2200 -1531 c0 -40 30 -94
73 -130 37 -31 32 -40 -19 -42 -33 -1 -41 4 -65 39 -38 55 -43 85 -23 129 22
45 34 46 34 4z"/>
<path d="M5672 7733 c-24 -34 -66 -56 -144 -78 -56 -15 -128 -65 -128 -89 0
-12 -41 -41 -110 -77 -56 -29 -54 -28 -49 -34 3 -2 17 2 31 9 32 17 40 12 28
-18 -12 -33 28 -243 52 -270 4 -6 8 -20 8 -33 0 -13 4 -23 9 -23 8 0 16 -34
25 -99 4 -39 18 -34 51 15 17 25 47 58 67 75 20 17 49 41 65 55 15 13 33 24
38 24 6 0 18 9 28 20 9 11 24 20 32 20 8 0 15 4 15 9 0 9 38 24 57 22 6 -1 14
3 18 9 3 5 17 10 30 10 13 0 27 5 31 11 3 6 16 8 27 5 12 -3 27 0 34 6 9 7 17
7 26 -1 10 -8 17 -7 25 1 8 8 15 8 26 -1 8 -7 24 -10 36 -6 12 4 26 2 33 -3 7
-5 28 -13 47 -17 39 -8 78 -33 126 -78 l32 -29 -5 84 c-10 155 45 297 159 411
l69 68 -36 15 -36 15 -48 -43 c-26 -24 -93 -83 -147 -132 -162 -145 -218 -178
-395 -236 -135 -44 -219 -87 -298 -155 l-54 -46 -28 87 c-30 89 -37 172 -19
218 21 56 125 146 252 219 47 27 68 61 50 79 -6 6 -17 -1 -30 -19z"/>
<path d="M6417 7649 c-113 -117 -163 -246 -155 -405 4 -79 9 -99 38 -153 19
-35 46 -76 61 -92 15 -16 21 -29 14 -29 -16 0 -79 69 -99 109 -11 20 -21 28
-34 25 -10 -3 -26 4 -36 15 -11 12 -23 21 -28 21 -5 0 -28 13 -51 28 -51 35
-146 55 -219 47 -155 -16 -290 -97 -433 -257 l-70 -79 -17 -172 c-10 -95 -24
-215 -32 -267 -7 -52 -12 -97 -11 -98 4 -5 68 30 76 41 3 4 13 5 22 1 13 -5
16 -2 11 10 -6 16 11 23 20 8 8 -13 -5 -52 -18 -52 -6 0 -19 -8 -28 -17 -9
-10 -32 -33 -52 -52 -20 -19 -34 -36 -31 -39 3 -3 14 4 25 16 12 12 27 22 35
22 8 0 18 6 22 13 13 21 73 60 81 52 4 -4 -13 -24 -38 -46 -44 -38 -48 -49 -9
-28 11 5 28 8 37 6 13 -3 11 -7 -10 -15 -39 -16 -35 -32 5 -18 17 6 37 14 43
18 16 10 23 0 17 -23 -4 -14 -12 -19 -24 -16 -11 3 -19 1 -19 -5 0 -5 -9 -6
-20 -3 -21 7 -25 -1 -11 -24 5 -8 14 -10 21 -6 34 21 389 7 416 -16 15 -12 34
-4 34 14 0 8 -35 17 -101 25 -111 13 -121 16 -112 37 4 11 21 15 64 15 32 0
59 4 59 9 0 5 -34 24 -75 42 -53 23 -75 38 -73 48 2 9 12 17 23 19 12 2 25 13
30 25 9 20 17 22 80 22 39 0 95 -4 125 -9 68 -10 58 3 -28 34 -46 16 -62 27
-60 39 4 23 69 26 109 6 l31 -17 45 44 c25 23 72 82 104 131 33 48 87 119 120
158 33 38 71 89 84 111 21 36 25 39 30 23 28 -89 182 -425 243 -529 19 -33 54
-79 77 -102 58 -58 232 -158 547 -315 261 -130 267 -134 261 -160 -4 -23 0
-30 25 -43 42 -22 60 -20 82 6 l18 22 53 -48 c66 -59 86 -70 228 -117 119 -40
151 -40 151 0 0 21 -5 24 -105 60 -44 17 -70 32 -70 41 0 21 146 69 211 70 52
0 78 -9 184 -64 62 -33 120 -43 120 -22 0 16 -108 113 -160 145 -19 11 -51 21
-71 21 -19 0 -44 6 -55 14 -17 13 -17 16 -4 30 9 9 66 38 129 65 62 28 119 55
127 62 20 17 18 42 -3 36 -479 -142 -633 -168 -633 -107 0 25 -66 80 -96 80
-39 0 -327 203 -489 345 -102 88 -159 133 -190 147 -30 14 -40 33 -146 294
-83 205 -118 333 -129 474 -13 163 -51 249 -141 321 -19 15 -47 31 -62 35 -26
6 -35 0 -90 -57z"/>
<path d="M3479 7634 c-30 -20 -71 -45 -92 -55 -37 -19 -38 -19 -103 1 -68 21
-178 27 -189 11 -14 -23 69 -299 93 -308 25 -10 101 38 149 94 25 29 54 53 64
53 10 0 44 -16 76 -35 71 -43 110 -46 119 -10 15 59 -25 273 -52 282 -6 2 -35
-13 -65 -33z"/>
<path d="M5255 7380 c-3 -5 -1 -10 4 -10 6 0 11 5 11 10 0 6 -2 10 -4 10 -3 0
-8 -4 -11 -10z"/>
<path d="M3394 7346 c-9 -24 4 -48 23 -44 12 2 18 12 18 28 0 29 -32 41 -41
16z"/>
<path d="M5270 7301 c0 -6 5 -13 10 -16 6 -3 10 1 10 9 0 9 -4 16 -10 16 -5 0
-10 -4 -10 -9z"/>
<path d="M5875 7260 c-3 -5 1 -10 10 -10 9 0 13 5 10 10 -3 6 -8 10 -10 10 -2
0 -7 -4 -10 -10z"/>
<path d="M5920 7260 c0 -5 5 -10 10 -10 6 0 10 5 10 10 0 6 -4 10 -10 10 -5 0
-10 -4 -10 -10z"/>
<path d="M5970 7260 c0 -5 5 -10 10 -10 6 0 10 5 10 10 0 6 -4 10 -10 10 -5 0
-10 -4 -10 -10z"/>
<path d="M5825 7250 c-3 -5 1 -10 10 -10 9 0 13 5 10 10 -3 6 -8 10 -10 10 -2
0 -7 -4 -10 -10z"/>
<path d="M6020 7250 c0 -5 7 -10 15 -10 8 0 15 5 15 10 0 6 -7 10 -15 10 -8 0
-15 -4 -15 -10z"/>
<path d="M5760 7230 c0 -5 7 -10 15 -10 8 0 15 5 15 10 0 6 -7 10 -15 10 -8 0
-15 -4 -15 -10z"/>
<path d="M6080 7230 c0 -5 7 -10 15 -10 8 0 15 5 15 10 0 6 -7 10 -15 10 -8 0
-15 -4 -15 -10z"/>
<path d="M5290 7220 c0 -5 5 -10 10 -10 6 0 10 5 10 10 0 6 -4 10 -10 10 -5 0
-10 -4 -10 -10z"/>
<path d="M5720 7216 c0 -9 5 -16 10 -16 6 0 10 4 10 9 0 6 -4 13 -10 16 -5 3
-10 -1 -10 -9z"/>
<path d="M6150 7186 c0 -9 7 -16 16 -16 9 0 14 5 12 12 -6 18 -28 21 -28 4z"/>
<path d="M5305 7180 c3 -5 8 -10 11 -10 2 0 4 5 4 10 0 6 -5 10 -11 10 -5 0
-7 -4 -4 -10z"/>
<path d="M5650 7170 c0 -5 5 -10 10 -10 6 0 10 5 10 10 0 6 -4 10 -10 10 -5 0
-10 -4 -10 -10z"/>
<path d="M6200 7150 c0 -5 5 -10 10 -10 6 0 10 5 10 10 0 6 -4 10 -10 10 -5 0
-10 -4 -10 -10z"/>
<path d="M5600 7134 c0 -14 3 -14 15 -4 8 7 15 14 15 16 0 2 -7 4 -15 4 -8 0
-15 -7 -15 -16z"/>
<path d="M5320 7121 c0 -6 5 -13 10 -16 6 -3 10 1 10 9 0 9 -4 16 -10 16 -5 0
-10 -4 -10 -9z"/>
<path d="M5540 7090 c0 -5 7 -10 15 -10 8 0 15 5 15 10 0 6 -7 10 -15 10 -8 0
-15 -4 -15 -10z"/>
<path d="M5340 7071 c0 -5 5 -13 10 -16 6 -3 10 -2 10 4 0 5 -4 13 -10 16 -5
3 -10 2 -10 -4z"/>
<path d="M5510 7060 c0 -5 5 -10 10 -10 6 0 10 5 10 10 0 6 -4 10 -10 10 -5 0
-10 -4 -10 -10z"/>
<path d="M5475 7030 c3 -5 10 -10 16 -10 5 0 9 5 9 10 0 6 -7 10 -16 10 -8 0
-12 -4 -9 -10z"/>
<path d="M3497 7004 c-12 -12 -8 -42 6 -47 24 -9 44 10 31 30 -12 20 -27 26
-37 17z"/>
<path d="M5440 6990 c0 -5 5 -10 10 -10 6 0 10 5 10 10 0 6 -4 10 -10 10 -5 0
-10 -4 -10 -10z"/>
<path d="M5370 6935 c0 -9 5 -15 11 -13 6 2 11 8 11 13 0 5 -5 11 -11 13 -6 2
-11 -4 -11 -13z"/>
<path d="M3650 6715 c-11 -13 -11 -19 3 -33 20 -19 41 -5 35 24 -4 24 -22 28
-38 9z"/>
<path d="M2174 6566 c-9 -15 -19 -47 -22 -73 l-5 -46 37 38 c38 41 46 74 22
94 -12 10 -18 7 -32 -13z"/>
<path d="M5170 6382 c0 -10 -5 -23 -12 -30 -9 -9 -8 -16 5 -30 15 -16 15 -19
-4 -30 -19 -12 -19 -13 -2 -37 18 -24 43 -33 43 -15 0 5 8 6 18 3 15 -6 15 -5
3 11 -11 13 -16 14 -22 4 -7 -10 -11 -10 -21 0 -9 9 -9 12 0 12 7 0 12 8 12
18 0 10 -5 23 -12 30 -7 7 -8 12 -2 12 15 0 30 -14 37 -32 3 -10 11 -18 18
-18 12 0 13 -2 -24 68 -29 55 -37 63 -37 34z"/>
<path d="M5366 6329 c-11 -10 -16 -22 -13 -26 7 -6 47 30 47 42 0 10 -15 3
-34 -16z"/>
<path d="M5287 6317 c-11 -29 -9 -43 4 -30 6 6 9 19 7 29 -3 18 -4 18 -11 1z"/>
<path d="M5308 6276 c-10 -7 -18 -22 -18 -32 0 -16 4 -14 25 10 14 16 25 31
25 33 0 7 -16 2 -32 -11z"/>
<path d="M5250 6262 c0 -5 7 -15 15 -22 8 -7 15 -8 15 -2 0 5 -7 15 -15 22 -8
7 -15 8 -15 2z"/>
<path d="M5933 6249 c14 -8 22 -8 30 0 8 8 3 11 -18 11 -26 -1 -28 -2 -12 -11z"/>
<path d="M5410 6230 c0 -5 7 -10 15 -10 8 0 15 5 15 10 0 6 -7 10 -15 10 -8 0
-15 -4 -15 -10z"/>
<path d="M5320 6220 c0 -6 7 -10 15 -10 8 0 15 2 15 4 0 2 -7 6 -15 10 -8 3
-15 1 -15 -4z"/>
<path d="M5191 6211 c-8 -5 -20 -7 -28 -4 -24 9 -13 -12 12 -24 20 -9 25 -8
25 3 0 21 18 17 25 -7 4 -11 9 -18 11 -16 6 6 -17 57 -25 57 -3 0 -12 -4 -20
-9z"/>
<path d="M5380 6211 c0 -5 7 -12 16 -15 24 -9 28 -7 14 9 -14 17 -30 20 -30 6z"/>
<path d="M5440 6195 c0 -9 5 -15 11 -13 6 2 11 8 11 13 0 5 -5 11 -11 13 -6 2
-11 -4 -11 -13z"/>
<path d="M5316 6192 c-3 -5 0 -17 7 -26 12 -16 13 -16 14 3 2 22 -12 37 -21
23z"/>
<path d="M5400 6170 c0 -5 5 -10 11 -10 5 0 7 5 4 10 -3 6 -8 10 -11 10 -2 0
-4 -4 -4 -10z"/>
<path d="M5370 6160 c0 -5 5 -10 11 -10 5 0 7 5 4 10 -3 6 -8 10 -11 10 -2 0
-4 -4 -4 -10z"/>
<path d="M5498 6163 c-16 -4 -16 -6 -4 -19 20 -20 36 -17 36 6 0 20 -2 21 -32
13z"/>
<path d="M5550 6159 c0 -5 5 -7 10 -4 6 3 10 8 10 11 0 2 -4 4 -10 4 -5 0 -10
-5 -10 -11z"/>
<path d="M5138 6143 c-11 -14 -10 -15 12 -8 34 10 44 20 21 22 -11 1 -26 -5
-33 -14z"/>
<path d="M5270 6134 c0 -8 5 -12 10 -9 6 4 8 11 5 16 -9 14 -15 11 -15 -7z"/>
<path d="M5350 6135 c0 -7 39 -12 49 -5 7 4 -1 7 -18 8 -17 0 -31 -1 -31 -3z"/>
<path d="M4950 3329 c0 -89 -26 -264 -56 -379 -50 -191 -171 -547 -249 -734
-74 -178 -121 -273 -236 -483 -102 -186 -129 -250 -185 -442 -74 -249 -98
-286 -221 -334 -94 -37 -153 -80 -153 -111 0 -13 7 -27 16 -30 36 -14 219 -28
320 -24 122 4 109 -6 189 134 53 93 168 224 198 224 22 0 21 -3 -8 -190 -15
-97 -20 -159 -14 -164 17 -18 26 7 52 145 36 183 59 241 115 287 l44 37 -5 61
c-4 57 -31 124 -49 124 -4 0 -8 -33 -8 -73 0 -83 -9 -97 -86 -135 -23 -12 -55
-33 -73 -47 -17 -15 -31 -24 -31 -21 0 4 155 248 185 291 6 10 3 26 -12 52
-45 80 -8 147 262 483 187 233 338 455 410 605 91 186 112 276 125 510 4 88 7
160 6 161 -26 13 -234 48 -326 54 -69 5 -144 12 -167 15 -41 7 -43 6 -43 -16z
m-642 -2401 c-2 -6 -17 -21 -32 -32 -25 -19 -44 -21 -189 -24 -151 -2 -204 5
-184 25 5 4 83 10 175 14 92 3 178 11 192 17 33 14 42 14 38 0z"/>
<path d="M10228 35 c-6 -30 -3 -43 8 -33 3 4 4 19 2 35 l-3 28 -7 -30z"/>
</g>
</svg>
