
<svg  xmlns="http://www.w3.org/2000/svg"
  viewBox="0 0 1097.000000 1280.000000">

<g transform="translate(0.000000,1280.000000) scale(0.100000,-0.100000)"
fill="#000000" stroke="none">
<path d="M3410 12794 c-14 -2 -63 -9 -110 -15 -274 -37 -622 -184 -915 -387
-231 -160 -538 -443 -741 -682 -675 -794 -1186 -1875 -1455 -3080 -216 -966
-247 -2004 -84 -2816 240 -1195 811 -1940 1610 -2101 140 -28 433 -25 585 5
765 154 1521 796 2147 1821 l88 144 115 69 c239 144 637 328 937 434 658 232
1431 362 2016 339 111 -4 285 -8 387 -9 214 -1 253 -10 316 -71 38 -37 64 -91
64 -135 0 -8 -18 -23 -40 -32 l-40 -17 0 -105 c0 -102 1 -106 25 -122 l25 -16
0 -288 c0 -159 3 -295 6 -304 3 -9 35 -36 69 -61 l64 -45 3 -130 c2 -72 0
-130 -3 -130 -4 0 -42 7 -85 16 -139 29 -372 6 -424 -41 -17 -15 -20 -31 -20
-91 0 -66 2 -75 24 -89 33 -22 77 -33 171 -45 63 -8 100 -20 174 -56 52 -26
108 -50 125 -53 l31 -7 3 -86 3 -86 44 -12 c42 -12 45 -15 45 -46 0 -38 -10
-41 -70 -24 -299 86 -948 142 -1395 120 -194 -9 -233 -8 -500 16 l-290 26
-980 -513 c-853 -446 -1003 -521 -1155 -579 l-175 -66 -3 -37 c-2 -20 -2 -37
0 -37 5 0 546 -186 581 -199 l27 -11 0 -530 c0 -496 -1 -531 -17 -537 -158
-53 -281 -181 -448 -469 -124 -213 -337 -391 -558 -468 -15 -5 -17 -15 -15
-68 l3 -62 80 -18 c191 -42 584 -120 1255 -249 85 -17 198 -39 250 -49 52 -10
169 -33 260 -50 91 -17 185 -35 210 -40 25 -5 119 -23 210 -40 91 -17 185 -35
210 -40 43 -9 251 -49 580 -110 147 -27 224 -42 478 -91 59 -11 130 -24 157
-29 50 -9 339 -63 645 -120 91 -17 203 -37 250 -46 47 -8 207 -37 355 -64 149
-27 317 -56 375 -66 l104 -17 50 54 c154 167 1190 1361 1487 1714 246 293 222
256 214 325 l-7 60 -41 0 c-71 0 -195 40 -261 84 -102 69 -118 106 -146 351
-19 165 -78 240 -230 289 -85 27 -132 35 -207 36 l-53 0 0 134 c0 74 3 137 8
139 4 2 103 -1 220 -6 235 -11 249 -9 282 45 51 84 29 218 -69 428 -119 253
-113 270 100 270 103 0 110 -1 156 -30 59 -38 190 -79 274 -86 86 -7 144 21
177 86 27 55 28 99 2 150 -44 85 -126 108 -269 71 -95 -24 -193 -65 -217 -92
-15 -16 -32 -19 -123 -19 -167 -1 -222 -21 -250 -95 -13 -34 -13 -45 2 -101 9
-35 39 -112 68 -171 88 -186 112 -278 89 -348 l-12 -38 -187 7 c-102 4 -201
10 -218 13 l-33 5 0 205 0 206 78 85 c42 47 150 146 240 220 l162 135 0 42 0
42 -72 22 c-71 21 -247 40 -1008 108 -107 10 -187 19 -177 21 16 3 17 34 17
468 0 521 5 485 -76 581 l-44 51 0 275 0 275 28 7 c15 3 37 13 50 21 20 13 22
22 22 119 l0 105 -34 16 -34 17 -7 98 c-9 132 -38 269 -71 336 -32 67 -127
170 -209 229 -81 57 -229 131 -390 194 -71 27 -156 68 -190 89 -33 21 -132 83
-220 136 -452 276 -913 612 -1280 934 -152 133 -453 434 -571 571 -165 192
-318 395 -422 561 l-41 65 -10 250 c-20 471 -66 811 -161 1179 -279 1082 -858
1743 -1620 1850 -99 13 -283 18 -350 9z m5067 -7980 c-2 -2 -12 -1 -22 3 -18
6 -18 7 1 13 17 7 33 -5 21 -16z m383 -405 c57 -17 111 -35 120 -40 15 -10
-66 -7 -202 8 l-58 6 0 34 c0 28 3 33 18 29 9 -3 64 -19 122 -37z"/>
</g>
</svg>
