<svg width="1000" height="1001" viewBox="0 0 1000 1001" fill="none" xmlns="http://www.w3.org/2000/svg">
<g id="Backward_-_Grey" clip-path="url(#clip0_515_86)">
<g id="Group">
<g id="Group_2">
<path id="Vector" d="M500 992.638C228.125 992.638 7.8125 772.326 7.8125 500.451C7.8125 228.576 228.125 8.26312 500 8.26312C771.875 8.26312 992.188 228.576 992.188 500.451C992.188 772.326 771.875 992.638 500 992.638Z" fill="url(#paint0_radial_515_86)"/>
<g id="Group_3">
<path id="Vector_2" d="M500 16.0757C767.188 16.0757 984.375 233.263 984.375 500.451C984.375 767.638 767.188 984.826 500 984.826C232.812 984.826 15.625 767.638 15.625 500.451C15.625 233.263 232.812 16.0757 500 16.0757ZM500 0.450684C223.437 0.450684 0 223.888 0 500.451C0 777.013 223.437 1000.45 500 1000.45C776.563 1000.45 1000 777.013 1000 500.451C1000 223.888 776.563 0.450684 500 0.450684Z" fill="#8B98A0"/>
</g>
</g>
<g id="Group_4" opacity="0.8">
<path id="Vector_3" d="M834.375 150.451C917.187 237.951 968.75 355.138 968.75 484.826C968.75 752.013 751.562 969.201 484.375 969.201C354.687 969.201 237.5 917.638 150 834.826C237.5 927.013 362.5 984.826 500 984.826C767.188 984.826 984.375 767.638 984.375 500.451C984.375 362.951 926.562 239.513 834.375 150.451Z" fill="url(#paint1_linear_515_86)"/>
</g>
<g id="Group_5">
<g id="Group_6">
<path id="Vector_4" d="M381.25 589.513C550 442.638 770.313 306.701 959.375 409.826C917.188 194.201 728.125 31.7006 500 31.7006C242.188 31.7006 31.25 242.638 31.25 500.451C31.25 562.951 43.75 622.326 65.625 677.013C140.625 695.763 256.25 697.326 381.25 589.513Z" fill="url(#paint2_linear_515_86)"/>
</g>
</g>
<g id="Group_7">
<path id="Vector_5" d="M62.5 531.701C62.5 273.888 273.437 62.9507 531.25 62.9507C653.125 62.9507 762.5 109.826 846.875 184.826C760.937 91.0757 637.5 31.7007 500 31.7007C242.187 31.7007 31.25 242.638 31.25 500.451C31.25 637.951 90.625 761.388 184.375 847.326C109.375 762.951 62.5 653.576 62.5 531.701Z" fill="url(#paint3_linear_515_86)"/>
</g>
</g>
<g id="setting shadow">
<path d="M368.018 482.028C381.708 480.398 395.398 484.564 405.104 493.167L429.623 514.9L452.815 494.435L419.305 464.822C414.094 460.204 414.094 452.688 419.305 448.069C424.515 443.451 432.995 443.451 438.205 448.069L471.715 477.772L494.907 457.306L470.285 435.482C460.579 426.879 455.88 414.654 457.719 402.61C461.805 375.08 451.895 346.283 428.091 325.093C403.776 303.54 370.47 294.846 338.901 299.012C333.895 299.646 331.852 305.17 335.428 308.339L366.997 336.322C382.015 349.634 382.015 371.186 366.997 384.408L347.585 401.613C332.567 414.925 308.252 414.925 293.336 401.613L261.665 373.631C258.089 370.462 251.959 372.273 251.142 376.71C246.442 404.692 256.25 434.214 280.565 455.767C304.472 476.866 336.96 485.65 368.018 482.028Z" fill="url(#paint4_linear_515_86)"/>
<path d="M564.379 518.885L541.188 539.351L678.906 661.422C684.116 666.04 684.116 673.556 678.906 678.175C673.695 682.793 665.215 682.793 660.005 678.175L522.287 556.104L499.096 576.57L641.002 702.354C658.983 718.292 688.1 718.201 706.081 702.263C724.062 686.325 724.062 660.516 706.184 644.578L564.379 518.885Z" fill="url(#paint5_linear_515_86)"/>
<path d="M617.607 437.384H678.803L740 328.987L709.453 301.91L587.059 356.063V410.307L420.735 557.281L390.801 530.839L270.247 637.696C245.114 659.973 245.114 696.015 270.247 718.292C295.379 740.569 336.041 740.569 361.173 718.292L481.728 611.435L451.18 584.358L617.607 437.384Z" fill="url(#paint6_linear_515_86)"/>
</g>
<g id="setting">
<path d="M348.018 466.028C361.708 464.398 375.398 468.564 385.104 477.167L409.623 498.9L432.815 478.435L399.305 448.822C394.094 444.204 394.094 436.688 399.305 432.069C404.515 427.451 412.995 427.451 418.205 432.069L451.715 461.772L474.907 441.306L450.285 419.482C440.579 410.879 435.88 398.654 437.719 386.61C441.805 359.08 431.895 330.283 408.091 309.093C383.776 287.54 350.47 278.846 318.901 283.012C313.895 283.646 311.852 289.17 315.428 292.339L346.997 320.322C362.015 333.634 362.015 355.186 346.997 368.408L327.585 385.613C312.567 398.925 288.252 398.925 273.336 385.613L241.665 357.631C238.089 354.462 231.959 356.273 231.142 360.71C226.442 388.692 236.25 418.214 260.565 439.767C284.472 460.866 316.96 469.65 348.018 466.028Z" fill="black"/>
<path d="M544.379 502.885L521.188 523.351L658.906 645.422C664.116 650.04 664.116 657.556 658.906 662.175C653.695 666.793 645.215 666.793 640.005 662.175L502.287 540.104L479.096 560.57L621.002 686.354C638.983 702.292 668.1 702.201 686.081 686.263C704.062 670.325 704.062 644.516 686.184 628.578L544.379 502.885Z" fill="black"/>
<path d="M597.607 421.384H658.803L720 312.987L689.453 285.91L567.059 340.063V394.307L400.735 541.281L370.801 514.839L250.247 621.696C225.114 643.973 225.114 680.015 250.247 702.292C275.379 724.569 316.041 724.569 341.173 702.292L461.728 595.435L431.18 568.358L597.607 421.384Z" fill="black"/>
</g>
</g>
<defs>
<radialGradient id="paint0_radial_515_86" cx="0" cy="0" r="1" gradientUnits="userSpaceOnUse" gradientTransform="translate(498.994 853.146) scale(507.567 507.567)">
<stop stop-color="#E7ECEF"/>
<stop offset="1" stop-color="#BFC8CD"/>
</radialGradient>
<linearGradient id="paint1_linear_515_86" x1="485.852" y1="324.716" x2="744.872" y2="1317.38" gradientUnits="userSpaceOnUse">
<stop stop-color="white"/>
<stop offset="1" stop-color="#B7C6CE"/>
</linearGradient>
<linearGradient id="paint2_linear_515_86" x1="367.759" y1="19.3585" x2="546.486" y2="669.585" gradientUnits="userSpaceOnUse">
<stop stop-color="#FFFBD4"/>
<stop offset="1"/>
</linearGradient>
<linearGradient id="paint3_linear_515_86" x1="283.806" y1="-67.6368" x2="616.414" y2="896.905" gradientUnits="userSpaceOnUse">
<stop stop-color="white"/>
<stop offset="1"/>
</linearGradient>
<linearGradient id="paint4_linear_515_86" x1="495.699" y1="301.91" x2="495.699" y2="735" gradientUnits="userSpaceOnUse">
<stop stop-color="white"/>
<stop offset="1" stop-color="#E7ECEF"/>
</linearGradient>
<linearGradient id="paint5_linear_515_86" x1="495.699" y1="301.91" x2="495.699" y2="735" gradientUnits="userSpaceOnUse">
<stop stop-color="white"/>
<stop offset="1" stop-color="#E7ECEF"/>
</linearGradient>
<linearGradient id="paint6_linear_515_86" x1="495.699" y1="301.91" x2="495.699" y2="735" gradientUnits="userSpaceOnUse">
<stop stop-color="white"/>
<stop offset="1" stop-color="#E7ECEF"/>
</linearGradient>
<clipPath id="clip0_515_86">
<rect width="1000" height="1000" fill="white" transform="matrix(1 0 0 -1 0 1000.45)"/>
</clipPath>
</defs>
</svg>
