<svg width="1000" height="1000" viewBox="0 0 1000 1000" fill="none" xmlns="http://www.w3.org/2000/svg">
<path d="M683.264 68.4448C665.67 69.4094 633.717 77.0186 616.64 84.1992C608.749 87.5216 601.633 92.0228 599.952 94.8093C598.658 97.0599 597.364 97.3815 586.239 97.9173C559.33 99.3106 539.019 109.492 529.317 126.532C522.978 137.571 524.142 152.683 532.422 165.865C535.009 169.937 535.009 172.51 532.422 176.582C529.964 180.547 524.53 190.943 521.296 198.017C513.663 214.843 513.017 235.313 519.356 253.532C521.296 259.212 521.167 267.036 518.967 271.537C514.957 280.004 504.866 288.47 495.811 291.364C488.307 293.615 486.625 294.794 486.625 297.366C486.625 300.367 490.118 304.546 497.88 310.655C505.254 316.442 506.677 320.408 502.796 324.588C498.786 328.874 501.632 340.664 507.195 343.236C510.559 344.736 510.559 345.808 507.195 349.559C503.185 354.167 504.866 357.168 513.534 361.026L520.908 364.349L521.684 388.034L526.729 392.321C533.715 398.001 540.572 399.501 553.767 397.894C559.201 397.251 566.575 395.965 570.197 395.107C573.819 394.25 578.088 393.607 579.641 393.607C581.193 393.607 584.298 392.857 586.627 391.892C589.343 390.606 594.389 390.07 602.539 389.963L614.57 389.856L619.227 393.607C625.825 398.858 634.881 412.255 646.265 433.797C648.206 437.333 650.534 441.62 651.569 443.442C654.027 447.729 659.59 459.947 662.954 468.628C665.024 473.986 665.67 478.38 665.67 487.383C665.67 498.529 665.412 499.601 661.272 506.674C655.192 517.284 648.076 524.572 630.224 538.397C621.685 545.042 614.7 551.043 614.7 551.687C614.7 552.437 616.511 553.294 618.71 553.723C624.531 554.687 869.295 554.473 869.942 553.616C872.788 549.757 833.978 516.427 811.08 502.923C777.832 483.418 757.263 468.306 747.948 456.732C735.141 440.763 728.026 421.15 731.13 410.219C732.683 404.753 739.539 399.394 747.172 397.679C754.287 396.072 754.675 394.786 752.347 380.425C751.312 374.423 750.794 368.957 751.053 368.207C752.088 366.171 755.452 367.564 763.472 373.351C773.563 380.532 788.57 387.712 802.153 391.892C810.433 394.571 826.863 395.322 830.097 393.285C832.555 391.785 832.296 391.571 827.121 390.392C819.359 388.784 820.135 385.998 828.803 384.283C842.257 381.603 849.372 378.71 864.379 369.493C881.585 358.883 895.039 345.165 906.553 326.088C913.539 314.513 917.032 306.583 918.067 299.831C919.36 291.686 919.749 290.828 922.595 291.471C924.276 291.9 925.182 292.972 925.182 294.686C925.182 297.473 928.934 303.582 930.615 303.582C932.168 303.582 931.909 300.581 930.357 299.831C929.71 299.509 929.063 298.009 929.063 296.616C929.063 295.222 928.157 293.4 927.122 292.436C926.088 291.578 925.182 289.864 925.182 288.685C925.182 287.506 924.535 285.255 923.888 283.755C920.007 275.181 916.514 254.389 911.598 209.27C908.364 180.762 904.871 168.437 894.522 150.753C879.645 125.139 861.274 111.1 832.684 103.383C811.985 97.8101 806.94 97.2743 777.056 97.3815C747.69 97.3815 747.69 97.3815 724.662 102.74C720.781 103.705 715.606 105.098 713.278 105.955C707.974 107.777 707.844 107.777 707.844 105.848C707.844 104.991 708.362 104.241 709.009 104.241C709.785 104.241 712.89 102.74 715.994 101.025C719.229 99.2034 722.463 97.8101 723.368 97.8101C724.274 97.8101 726.473 97.1671 728.284 96.3097C741.739 90.5224 762.955 86.557 787.147 85.2709C800.73 84.6279 804.094 83.3418 796.979 81.6271C795.297 81.1984 790.64 79.8051 786.759 78.5191C782.878 77.233 777.573 75.8397 775.115 75.3039C772.657 74.8752 768 74.0178 764.766 73.3748C747.948 69.9452 736.434 68.8735 714.313 68.4448C701.117 68.2305 687.145 68.2305 683.264 68.4448ZM644.454 152.04C653.251 160.077 672.398 174.546 683.264 181.405C693.484 187.835 714.959 198.66 724.662 202.411C748.207 211.52 776.538 223.845 786.112 229.204C804.094 239.278 821.688 254.497 829.062 266.607C832.296 271.859 835.013 277.646 837.729 285.255C840.446 292.757 840.705 317.086 837.988 320.194C837.083 321.372 835.789 324.052 835.271 326.088C834.366 329.303 834.107 329.518 833.331 327.588C832.684 326.41 832.684 323.409 833.202 321.051C835.013 313.12 831.39 297.687 825.181 286.434C813.279 265 781.972 240.564 744.714 223.738C734.106 219.022 723.498 214.093 716.253 210.663C713.407 209.377 709.914 207.769 708.491 207.126C697.365 202.411 679.771 191.265 667.74 181.405C654.933 170.902 643.549 159.113 633.846 146.252C630.353 141.537 631.129 139.822 635.14 143.466C637.08 145.288 641.22 149.146 644.454 152.04ZM735.011 287.506C735.011 290.185 733.718 292.864 732.295 292.864C731.001 292.864 730.742 288.578 731.907 286.005C732.942 283.862 735.011 284.827 735.011 287.506ZM731.13 296.294C731.13 298.33 728.802 300.902 727.896 300.152C726.732 299.188 728.414 295.008 729.966 295.008C730.613 295.008 731.13 295.651 731.13 296.294ZM727.249 303.367C727.249 304.439 726.214 306.047 725.05 306.904C723.756 307.869 721.816 309.691 720.781 311.084C719.746 312.37 715.477 316.442 711.467 320.086C707.456 323.623 702.799 328.017 701.117 329.732C695.942 334.769 689.733 331.447 692.579 325.123C693.484 323.087 694.39 322.766 697.754 323.087C701.247 323.516 703.058 322.873 708.491 319.229C711.984 316.871 715.348 314.299 715.865 313.763C716.383 313.12 717.547 311.834 718.452 310.655C719.358 309.583 720.781 308.083 721.557 307.44C722.333 306.69 723.498 305.082 723.886 303.796C725.05 301.01 727.249 300.688 727.249 303.367Z" fill="black"/>
<path d="M913.539 73.6963C911.081 74.4465 907.717 75.1967 906.165 75.1967C902.155 75.3038 887.665 81.0912 876.54 86.9857C868.131 91.3798 863.085 95.7738 863.085 98.7747C863.085 99.3105 868.131 101.883 874.47 104.348C899.955 114.529 918.714 128.89 930.227 147.324C940.447 163.614 941.353 167.58 941.224 191.586C941.094 205.947 940.447 216.665 939.024 224.167C936.178 238.635 936.178 258.784 938.895 269.286C941.87 280.754 947.951 292.221 955.454 300.581C963.992 310.119 965.933 310.119 964.768 300.795C964.251 296.83 962.957 291.9 961.922 289.756C960.887 287.72 960.111 283.54 960.241 280.54C960.37 277.432 959.723 273.895 958.559 271.966C954.419 265.321 953.125 257.069 954.807 248.602C958.429 230.811 966.58 210.02 978.87 187.299C980.551 184.298 983.139 179.261 984.691 176.046C986.244 172.831 988.313 168.651 989.219 166.937C997.24 151.289 1000.86 135.321 999.827 120.424C999.18 111.635 998.533 109.492 994.394 102.633C985.855 88.7004 973.048 79.3764 955.325 74.2321C946.398 71.66 921.042 71.3385 913.539 73.6963Z" fill="black"/>
<path d="M331.229 3.04108C356.258 9.71759 382.7 25.6276 394.811 41.5376C402.884 51.9075 404.297 67.2492 397.838 77.6191C395.416 81.5966 391.783 86.0003 389.563 87.4208C384.113 90.8301 384.718 94.2394 392.59 103.473C400.866 112.99 423.473 145.095 429.932 156.601C432.556 161.147 436.391 165.408 438.208 166.118C442.446 167.681 441.639 171.943 435.785 177.767C428.115 185.438 427.308 189.699 431.95 196.092C436.593 202.2 469.494 230.611 480.393 237.713C488.669 243.253 488.669 248.509 480.595 253.055C463.842 262.004 463.64 262.289 463.64 267.26C463.64 270.67 465.457 273.795 469.292 277.062L474.943 281.75L468.081 286.296C461.016 290.699 461.016 290.841 464.649 294.109C469.897 298.796 469.494 301.353 462.631 305.473C453.75 311.013 451.126 318.826 454.355 330.758C457.585 343.117 456.172 350.078 448.905 355.334C438.006 363.289 432.556 364.283 396.224 363.857C362.717 363.573 353.634 364.709 350.808 369.539C350.203 370.533 344.753 379.767 338.697 389.995C328.201 407.609 312.457 426.502 303.173 432.327C299.136 435.026 298.934 434.884 285.208 428.065C258.565 414.712 249.482 409.314 232.325 396.813C186.909 363.573 158.247 331.753 139.274 293.54C133.218 281.04 131.805 283.597 137.255 297.518C145.935 319.678 167.128 352.919 185.496 372.806C195.387 383.744 217.186 402.779 220.819 403.916C222.434 404.342 222.434 404.626 220.618 404.626C217.59 404.768 185.698 393.12 163.697 383.744C142.301 374.795 115.86 361.158 114.447 358.459C113.841 357.322 113.236 353.771 113.236 350.646C113.236 345.39 112.63 344.964 101.932 340.56L90.6288 336.156L91.8399 327.491C94.8676 306.041 86.1882 290.273 60.3519 270.386L43.3969 257.317L31.0843 230.611C24.2215 215.837 17.5606 200.353 16.5514 196.234C13.9274 187 13.7255 170.238 16.3495 162.567L18.1661 156.885L10.0923 163.988L11.5052 159.726C12.3126 157.311 15.5421 150.35 18.5698 144.1C23.4141 134.583 23.8178 133.304 20.3864 136.287C18.1661 138.276 12.7163 144.668 8.27568 150.493L0 161.147L1.21108 149.782C3.22953 129.611 11.1015 113.417 27.6529 95.802C43.195 79.0397 62.7741 67.2492 99.5101 52.6177C105.969 50.0608 111.217 47.7879 111.217 47.6459C111.217 47.5038 105.565 48.072 98.5008 49.0664C82.3532 51.1972 51.2689 52.7598 53.8929 51.1972C54.9021 50.629 75.6922 44.2366 100.116 37.1339C143.512 24.4911 163.293 19.8034 173.789 19.8034C184.084 19.8034 183.882 17.6726 173.588 12.8428C168.138 10.1437 163.899 7.87089 164.101 7.72884C164.504 7.58679 173.789 8.155 184.891 9.14937C195.992 10.2858 217.388 12.1325 232.325 13.411C293.888 18.809 324.77 23.9229 346.771 32.7302C352.625 35.0031 357.469 36.1395 357.469 35.4293C357.469 34.5769 347.377 26.6219 335.266 17.6726C322.953 8.86527 313.063 1.19438 313.063 0.768221C313.063 -0.794367 320.128 0.0579541 331.229 3.04108ZM274.712 32.3041C306.402 43.6684 321.339 50.9131 340.514 64.4082C354.24 74.0678 357.671 77.4771 361.708 85.148C365.543 92.2506 366.754 93.6712 367.158 90.8301C368.772 83.3013 357.065 65.6866 342.533 54.1803C332.44 46.0833 342.331 50.9131 358.882 61.9933C366.754 67.3913 372.204 70.3744 370.993 68.8118C360.901 55.4588 309.026 34.0087 268.253 26.3378C249.683 22.7865 250.895 23.7809 274.712 32.3041ZM383.305 44.0945C387.544 50.0608 388.755 53.8962 389.563 65.1184C390.572 79.892 393.196 78.4715 393.6 62.9876C393.801 53.7542 390.976 47.2197 383.709 40.6852C377.25 35.0031 377.25 35.9975 383.305 44.0945ZM170.762 51.7654C154.008 55.0326 132.209 62.5615 120.098 69.38C114.447 72.5052 102.336 81.8807 93.051 90.4039C69.8387 111.428 69.8387 111.712 88.8122 97.6487C115.456 77.7612 148.357 61.8512 168.743 58.8681C173.386 58.1578 172.376 58.8681 164.101 62.2774C151.99 67.1072 112.226 89.4096 115.658 89.4096C116.061 89.4096 124.135 85.8582 133.622 81.4546C155.018 71.5108 179.643 63.1297 193.57 61.1409C223.242 56.8793 270.675 62.7035 320.935 76.7668C329.211 79.0397 336.275 80.6023 336.679 80.3181C338.092 79.4658 320.531 69.38 310.035 65.1184C296.108 59.4363 267.244 52.9018 245.445 50.3449C223.242 47.7879 187.717 48.4982 170.762 51.7654ZM132.613 51.9075C118.887 54.3224 96.4824 61.7092 92.6473 64.9764C91.2344 66.1128 95.8768 64.9764 102.941 62.5615C109.804 60.0045 123.53 56.1691 133.016 53.8962C152.394 49.3505 152.192 48.3561 132.613 51.9075ZM337.285 73.3575C347.781 81.0284 357.671 88.2731 359.084 89.4096C365.341 93.9553 354.038 81.5966 346.368 75.4883C339.707 70.0903 321.944 59.7204 319.32 59.5783C318.715 59.5783 326.99 65.8287 337.285 73.3575ZM230.912 81.7387C240.6 83.5854 250.491 85.8582 252.711 86.7105C254.931 87.5629 257.354 87.989 257.757 87.5629C259.17 86.5685 238.986 80.8864 229.701 79.4658C212.947 77.193 213.553 78.3294 230.912 81.7387ZM163.092 183.591C152.797 189.131 148.559 196.234 148.559 208.024C148.559 218.962 152.596 225.923 164.706 236.435C173.588 244.106 194.781 252.771 204.066 252.629L211.131 252.487L203.057 250.924C175.404 245.242 153.807 229.19 150.375 211.291C149.366 206.035 150.173 203.194 154.21 196.802C158.853 189.841 160.871 188.279 169.147 185.722C177.624 183.023 179.845 182.881 187.919 184.443C206.287 187.853 222.031 200.353 222.434 211.433L222.636 217.968L225.664 211.433C227.48 207.74 228.288 203.194 227.682 201.348C225.664 196.092 211.333 185.296 201.644 181.886C189.533 177.483 172.982 178.335 163.092 183.591ZM193.974 200.211C191.754 201.206 192.157 201.774 196.598 202.91C199.827 203.763 203.057 204.473 204.066 204.473C207.498 204.473 208.911 208.166 209.112 218.11C209.516 230.469 214.36 238.14 228.288 248.367C233.738 252.345 237.775 255.612 237.169 255.612C236.563 255.612 232.728 254.334 228.288 252.771C219.205 249.504 217.388 249.22 219.407 251.493C221.021 253.481 244.839 261.436 246.252 260.584C246.656 260.158 243.628 253.765 239.389 246.237C233.536 236.293 230.306 232.173 226.471 230.753C216.783 227.343 213.755 223.65 214.159 216.263C214.966 206.035 214.562 204.757 210.122 201.632C205.883 198.649 199.02 197.938 193.974 200.211ZM150.577 260.584C153.807 264.846 157.642 269.249 159.055 270.102C160.669 270.954 158.449 267.118 154.21 261.578C145.329 249.93 142.301 249.078 150.577 260.584ZM132.007 282.176C132.815 282.602 133.42 282.176 133.42 281.182C133.42 280.187 132.815 279.761 132.007 280.187C131.402 280.756 131.402 281.608 132.007 282.176Z" fill="black"/>
<path d="M223.965 300.913C230.219 303.33 237.255 306.172 239.6 307.452C250.153 313.279 292.497 340.001 291.585 340.427C291.064 340.569 283.246 337.726 274.387 334.173C236.994 318.965 238.036 319.107 215.496 318.396C197.256 317.685 195.172 317.259 196.084 315.269C196.735 313.99 197.647 309.299 198.038 304.751L198.95 296.649H205.725C209.764 296.649 217.19 298.497 223.965 300.913Z" fill="black"/>
<path d="M324.987 438.635C343.04 439.719 375.826 448.271 393.347 456.34C401.444 460.074 408.745 465.133 410.471 468.264C411.798 470.794 413.125 471.155 424.541 471.757C452.15 473.323 472.99 484.765 482.945 503.916C489.45 516.322 488.255 533.305 479.76 548.12C477.105 552.697 477.105 555.587 479.76 560.164C482.282 564.621 487.857 576.304 491.175 584.253C499.007 603.163 499.67 626.168 493.166 646.644C491.175 653.028 491.308 661.82 493.565 666.879C497.679 676.394 508.033 685.909 517.325 689.161C525.023 691.691 526.749 693.016 526.749 695.906C526.749 699.279 523.165 703.976 515.201 710.842C507.635 717.346 506.175 721.802 510.157 726.5C514.272 731.317 511.351 744.566 505.644 747.457C502.192 749.143 502.192 750.348 505.644 754.563C509.759 759.743 508.033 763.115 499.14 767.451L491.573 771.185L490.777 797.803L485.6 802.621C478.432 809.005 471.397 810.691 457.858 808.884C452.283 808.162 444.717 806.716 441 805.753C437.284 804.789 432.903 804.066 431.31 804.066C429.718 804.066 426.532 803.223 424.143 802.139C421.355 800.694 416.178 800.092 407.816 799.971L395.471 799.851L390.693 804.066C383.923 809.968 374.631 825.024 362.95 849.234C360.959 853.208 358.57 858.026 357.508 860.074C354.986 864.891 349.278 878.622 345.827 888.378C343.703 894.401 343.04 899.339 343.04 909.456C343.04 921.983 343.305 923.187 347.553 931.136C353.791 943.061 361.092 951.251 379.41 966.788C388.171 974.256 395.338 981.001 395.338 981.724C395.338 982.567 393.48 983.53 391.224 984.012C385.25 985.096 134.11 984.855 133.446 983.892C130.526 979.556 170.347 942.097 193.842 926.921C227.956 905 249.061 888.017 258.618 875.009C271.759 857.062 279.06 835.021 275.874 822.735C274.281 816.593 267.246 810.57 259.415 808.643C252.114 806.837 251.716 805.391 254.105 789.252C255.167 782.507 255.698 776.364 255.433 775.521C254.371 773.232 250.919 774.798 242.69 781.302C232.336 789.372 216.939 797.442 203.001 802.139C194.506 805.15 177.648 805.994 174.33 803.705C171.808 802.019 172.073 801.778 177.383 800.453C185.347 798.646 184.55 795.515 175.657 793.588C161.852 790.577 154.552 787.325 139.154 776.966C121.5 765.042 107.695 749.625 95.8815 728.186C88.7137 715.178 85.1297 706.265 84.0678 698.677C82.7404 689.523 82.3422 688.559 79.422 689.282C77.6964 689.764 76.7672 690.968 76.7672 692.895C76.7672 696.027 72.9178 702.892 71.1922 702.892C69.5994 702.892 69.8649 699.52 71.4577 698.677C72.1214 698.315 72.7851 696.629 72.7851 695.063C72.7851 693.498 73.7142 691.45 74.7762 690.366C75.8381 689.402 76.7672 687.475 76.7672 686.15C76.7672 684.825 77.4309 682.296 78.0946 680.61C82.0767 670.974 85.6607 647.608 90.7047 596.9C94.0232 564.862 97.6071 551.011 108.226 531.137C123.491 502.351 142.34 486.572 171.675 477.9C192.913 471.637 198.09 471.035 228.752 471.155C258.884 471.155 258.884 471.155 282.511 477.177C286.493 478.261 291.803 479.827 294.192 480.791C299.634 482.838 299.767 482.838 299.767 480.67C299.767 479.707 299.236 478.864 298.572 478.864C297.776 478.864 294.59 477.177 291.405 475.25C288.086 473.203 284.768 471.637 283.839 471.637C282.909 471.637 280.653 470.914 278.794 469.951C264.99 463.447 243.221 458.99 218.399 457.545C204.461 456.822 201.01 455.377 208.311 453.45C210.036 452.968 214.815 451.402 218.797 449.957C222.779 448.511 228.221 446.946 230.743 446.343C233.265 445.862 238.044 444.898 241.362 444.175C258.618 440.321 270.432 439.117 293.13 438.635C306.669 438.394 321.005 438.394 324.987 438.635ZM364.809 532.582C355.783 541.616 336.137 557.876 324.987 565.584C314.501 572.811 292.466 584.976 282.511 589.192C258.353 599.43 229.283 613.281 219.461 619.303C201.01 630.625 182.958 647.728 175.392 661.339C172.073 667.24 169.286 673.744 166.498 682.296C163.711 690.727 163.445 718.068 166.233 721.561C167.162 722.886 168.489 725.897 169.02 728.186C169.949 731.799 170.215 732.04 171.011 729.872C171.675 728.547 171.675 725.175 171.144 722.525C169.286 713.612 173.002 696.268 179.374 683.621C191.586 659.532 223.708 632.07 261.937 613.16C272.821 607.861 283.706 602.32 291.139 598.466C294.059 597.021 297.643 595.214 299.103 594.491C310.519 589.192 328.571 576.665 340.916 565.584C354.057 553.781 365.738 540.532 375.693 526.078C379.277 520.779 378.481 518.852 374.366 522.947C372.375 524.994 368.127 529.33 364.809 532.582ZM271.892 684.825C271.892 687.837 273.219 690.848 274.68 690.848C276.007 690.848 276.272 686.03 275.078 683.139C274.016 680.73 271.892 681.814 271.892 684.825ZM275.874 694.702C275.874 696.99 278.263 699.881 279.193 699.038C280.387 697.954 278.662 693.257 277.069 693.257C276.405 693.257 275.874 693.979 275.874 694.702ZM279.856 702.651C279.856 703.856 280.918 705.662 282.113 706.626C283.44 707.71 285.431 709.758 286.493 711.323C287.555 712.769 291.936 717.346 296.05 721.441C300.165 725.416 304.944 730.354 306.669 732.281C311.979 737.942 318.35 734.208 315.43 727.102C314.501 724.813 313.572 724.452 310.121 724.813C306.537 725.295 304.678 724.572 299.103 720.477C295.519 717.827 292.068 714.937 291.537 714.335C291.006 713.612 289.812 712.167 288.883 710.842C287.953 709.637 286.493 707.951 285.697 707.228C284.9 706.385 283.706 704.579 283.308 703.133C282.113 700.002 279.856 699.64 279.856 702.651Z" fill="black"/>
<path d="M88.7137 444.537C91.2357 445.38 94.6869 446.223 96.2797 446.223C100.395 446.343 115.261 452.847 126.677 459.472C135.305 464.41 140.481 469.348 140.481 472.721C140.481 473.323 135.305 476.214 128.801 478.984C102.651 490.426 83.4041 506.566 71.5904 527.283C61.1041 545.59 60.175 550.047 60.3078 577.027C60.4405 593.166 61.1042 605.211 62.5643 613.642C65.4845 629.902 65.4845 652.546 62.697 664.35C59.6441 677.237 53.4054 690.125 45.7066 699.52C36.9459 710.239 34.9548 710.239 36.1494 699.761C36.6804 695.304 38.0078 689.764 39.0697 687.355C40.1316 685.066 40.928 680.369 40.7953 676.996C40.6625 673.504 41.3262 669.529 42.5208 667.361C46.7685 659.893 48.0958 650.619 46.3703 641.104C42.6536 621.11 34.2911 597.743 21.681 572.209C19.9554 568.836 17.3007 563.175 15.7078 559.562C14.1149 555.949 11.9911 551.251 11.0619 549.324C2.83218 531.739 -0.884491 513.793 0.177413 497.051C0.841103 487.174 1.50482 484.765 5.75244 477.057C14.5131 461.399 27.6542 450.92 45.8393 445.139C54.9982 442.248 81.0149 441.887 88.7137 444.537Z" fill="black"/>
<path d="M668.771 569.079C643.742 575.755 617.3 591.665 605.189 607.575C597.116 617.945 595.703 633.287 602.162 643.657C604.584 647.634 608.217 652.038 610.437 653.458C615.887 656.868 615.282 660.277 607.41 669.51C599.134 679.028 576.527 711.132 570.068 722.638C567.444 727.184 563.609 731.446 561.792 732.156C557.554 733.718 558.361 737.98 564.215 743.804C571.885 751.475 572.692 755.737 568.05 762.129C563.407 768.238 530.506 796.648 519.607 803.751C511.331 809.291 511.331 814.547 519.405 819.093C536.158 828.042 536.36 828.326 536.36 833.298C536.36 836.707 534.543 839.832 530.708 843.1L525.057 847.787L531.919 852.333C538.984 856.737 538.984 856.879 535.351 860.146C530.103 864.834 530.506 867.391 537.369 871.51C546.25 877.05 548.874 884.863 545.645 896.796C542.415 909.154 543.828 916.115 551.095 921.371C561.994 929.326 567.444 930.32 603.776 929.894C637.283 929.61 646.366 930.747 649.192 935.576C649.797 936.571 655.247 945.804 661.303 956.032C671.799 973.647 687.542 992.54 696.827 998.364C700.864 1001.06 701.066 1000.92 714.792 994.102C741.435 980.749 750.518 975.351 767.675 962.851C813.091 929.61 841.753 897.79 860.726 859.578C866.782 847.077 868.195 849.634 862.745 863.555C854.065 885.716 832.872 918.956 814.504 938.844C804.613 949.782 782.814 968.817 779.181 969.953C777.566 970.38 777.566 970.664 779.382 970.664C782.41 970.806 814.302 959.157 836.303 949.782C857.699 940.832 884.14 927.195 885.553 924.496C886.159 923.36 886.764 919.808 886.764 916.683C886.764 911.427 887.37 911.001 898.068 906.598L909.371 902.194L908.16 893.529C905.132 872.079 913.812 856.311 939.648 836.423L956.603 823.354L968.916 796.648C975.778 781.875 982.439 766.391 983.449 762.271C986.073 753.038 986.274 736.275 983.65 728.605L981.834 722.922L989.908 730.025L988.495 725.763C987.687 723.349 984.458 716.388 981.43 710.138C976.586 700.62 976.182 699.342 979.614 702.325C981.834 704.313 987.284 710.706 991.724 716.53L1000 727.184L998.789 715.82C996.77 695.648 988.898 679.454 972.347 661.839C956.805 645.077 937.226 633.287 900.49 618.655C894.031 616.098 888.783 613.825 888.783 613.683C888.783 613.541 894.435 614.11 901.499 615.104C917.647 617.235 948.731 618.797 946.107 617.235C945.098 616.666 924.308 610.274 899.884 603.171C856.488 590.529 836.707 585.841 826.211 585.841C815.916 585.841 816.118 583.71 826.412 578.88C831.862 576.181 836.101 573.908 835.899 573.766C835.496 573.624 826.211 574.192 815.109 575.187C804.008 576.323 782.612 578.17 767.675 579.448C706.112 584.846 675.23 589.96 653.229 598.768C647.375 601.041 642.531 602.177 642.531 601.467C642.531 600.614 652.623 592.659 664.734 583.71C677.046 574.903 686.937 567.232 686.937 566.806C686.937 565.243 679.872 566.095 668.771 569.079ZM725.288 598.342C693.598 609.706 678.661 616.951 659.486 630.446C645.76 640.105 642.329 643.515 638.292 651.185C634.457 658.288 633.246 659.709 632.842 656.868C631.228 649.339 642.935 631.724 657.467 620.218C667.56 612.121 657.669 616.951 641.118 628.031C633.246 633.429 627.796 636.412 629.007 634.849C639.099 621.496 690.974 600.046 731.747 592.375C750.317 588.824 749.105 589.818 725.288 598.342ZM616.695 610.132C612.456 616.098 611.245 619.934 610.437 631.156C609.428 645.929 606.804 644.509 606.4 629.025C606.199 619.792 609.024 613.257 616.291 606.723C622.75 601.041 622.75 602.035 616.695 610.132ZM829.238 617.803C845.992 621.07 867.791 628.599 879.902 635.417C885.553 638.543 897.664 647.918 906.949 656.441C930.161 677.465 930.161 677.749 911.188 663.686C884.544 643.799 851.643 627.889 831.257 624.906C826.614 624.195 827.624 624.906 835.899 628.315C848.01 633.145 887.774 655.447 884.342 655.447C883.939 655.447 875.865 651.896 866.378 647.492C844.982 637.548 820.357 629.167 806.43 627.178C776.758 622.917 729.325 628.741 679.065 642.804C670.789 645.077 663.725 646.64 663.321 646.356C661.908 645.503 679.469 635.417 689.965 631.156C703.892 625.474 732.756 618.939 754.555 616.382C776.758 613.825 812.283 614.536 829.238 617.803ZM867.387 617.945C881.113 620.36 903.518 627.747 907.353 631.014C908.766 632.15 904.123 631.014 897.059 628.599C890.196 626.042 876.47 622.207 866.984 619.934C847.606 615.388 847.808 614.394 867.387 617.945ZM662.715 639.395C652.219 647.066 642.329 654.311 640.916 655.447C634.659 659.993 645.962 647.634 653.632 641.526C660.293 636.128 678.056 625.758 680.68 625.616C681.285 625.616 673.01 631.866 662.715 639.395ZM769.088 647.776C759.4 649.623 749.509 651.896 747.289 652.748C745.069 653.6 742.646 654.027 742.243 653.6C740.83 652.606 761.014 646.924 770.299 645.503C787.053 643.23 786.447 644.367 769.088 647.776ZM836.908 749.628C847.203 755.169 851.441 762.271 851.441 774.062C851.441 785 847.404 791.96 835.294 802.472C826.412 810.143 805.219 818.808 795.934 818.666L788.869 818.524L796.943 816.962C824.596 811.28 846.193 795.228 849.625 777.329C850.634 772.073 849.827 769.232 845.79 762.839C841.147 755.879 839.129 754.316 830.853 751.759C822.376 749.06 820.155 748.918 812.081 750.481C793.713 753.89 777.969 766.391 777.566 777.471L777.364 784.005L774.336 777.471C772.52 773.778 771.712 769.232 772.318 767.385C774.336 762.129 788.667 751.333 798.356 747.924C810.467 743.52 827.018 744.373 836.908 749.628ZM806.026 766.249C808.246 767.243 807.843 767.811 803.402 768.948C800.173 769.8 796.943 770.51 795.934 770.51C792.502 770.51 791.089 774.204 790.888 784.147C790.484 796.506 785.64 804.177 771.712 814.405C766.262 818.382 762.225 821.65 762.831 821.65C763.437 821.65 767.272 820.371 771.712 818.809C780.795 815.541 782.612 815.257 780.593 817.53C778.979 819.519 755.161 827.474 753.748 826.621C753.344 826.195 756.372 819.803 760.611 812.274C766.464 802.33 769.694 798.211 773.529 796.79C783.217 793.381 786.245 789.688 785.841 782.301C785.034 772.073 785.438 770.794 789.878 767.669C794.117 764.686 800.98 763.976 806.026 766.249ZM849.423 826.621C846.193 830.883 842.358 835.287 840.945 836.139C839.331 836.991 841.551 833.156 845.79 827.616C854.671 815.967 857.699 815.115 849.423 826.621ZM867.993 848.214C867.185 848.64 866.58 848.214 866.58 847.219C866.58 846.225 867.185 845.799 867.993 846.225C868.598 846.793 868.598 847.645 867.993 848.214Z" fill="black"/>
<path d="M776.035 866.951C769.781 869.367 762.745 872.21 760.4 873.489C749.847 879.317 707.503 906.038 708.415 906.464C708.936 906.606 716.754 903.764 725.613 900.21C763.006 885.002 761.964 885.144 784.504 884.434C802.744 883.723 804.828 883.296 803.916 881.307C803.265 880.027 802.353 875.337 801.962 870.789L801.05 862.687H794.275C790.236 862.687 782.81 864.535 776.035 866.951Z" fill="black"/>
</svg>
